<svg width="171" height="40" viewBox="0 0 171 40" fill="none"
    xmlns="http://www.w3.org/2000/svg">
    <mask id="path-1-inside-1_18_67" fill="white">
        <path d="M0 8C0 3.58172 3.58172 0 8 0H163C167.418 0 171 3.58172 171 8V32C171 36.4183 167.418 40 163 40H8C3.58172 40 0 36.4183 0 32V8Z"/>
    </mask>
    <path d="M0 8C0 3.58172 3.58172 0 8 0H163C167.418 0 171 3.58172 171 8V32C171 36.4183 167.418 40 163 40H8C3.58172 40 0 36.4183 0 32V8Z" fill="#141414"/>
    <path d="M8 0V1H163V0V-1H8V0ZM171 8H170V32H171H172V8H171ZM163 40V39H8V40V41H163V40ZM0 32H1V8H0H-1V32H0ZM8 40V39C4.13401 39 1 35.866 1 32H0H-1C-1 36.9706 3.02944 41 8 41V40ZM171 32H170C170 35.866 166.866 39 163 39V40V41C167.971 41 172 36.9706 172 32H171ZM163 0V1C166.866 1 170 4.13401 170 8H171H172C172 3.02944 167.971 -1 163 -1V0ZM8 0V-1C3.02944 -1 -1 3.02944 -1 8H0H1C1 4.13401 4.13401 1 8 1V0Z" fill="white" fill-opacity="0.35" mask="url(#path-1-inside-1_18_67)"/>
    <path d="M18.2683 24.5V14.3182H21.8975C22.6863 14.3182 23.3409 14.4541 23.8613 14.7259C24.385 14.9976 24.7761 15.3738 25.0346 15.8544C25.2931 16.3317 25.4224 16.8835 25.4224 17.5099C25.4224 18.133 25.2915 18.6816 25.0296 19.1555C24.7711 19.6262 24.38 19.9924 23.8563 20.2543C23.336 20.5161 22.6814 20.647 21.8925 20.647H19.1433V19.3246H21.7533C22.2505 19.3246 22.6549 19.2533 22.9664 19.1108C23.2813 18.9683 23.5116 18.7611 23.6575 18.4893C23.8033 18.2176 23.8762 17.8911 23.8762 17.5099C23.8762 17.1255 23.8016 16.7924 23.6525 16.5107C23.5067 16.2289 23.2763 16.0135 22.9614 15.8643C22.6499 15.7119 22.2406 15.6357 21.7335 15.6357H19.8045V24.5H18.2683ZM23.2945 19.9062L25.8102 24.5H24.0602L21.5943 19.9062H23.2945ZM30.6479 24.6541C29.8955 24.6541 29.2475 24.4934 28.704 24.1719C28.1637 23.8471 27.7461 23.3913 27.4511 22.8047C27.1595 22.2147 27.0136 21.5237 27.0136 20.7315C27.0136 19.9493 27.1595 19.2599 27.4511 18.6634C27.7461 18.0668 28.1571 17.6011 28.6841 17.2663C29.2144 16.9316 29.8342 16.7642 30.5435 16.7642C30.9743 16.7642 31.3919 16.8355 31.7963 16.978C32.2007 17.1205 32.5636 17.3442 32.8851 17.6491C33.2066 17.9541 33.4601 18.3501 33.6457 18.8374C33.8313 19.3213 33.9241 19.9096 33.9241 20.6023V21.1293H27.8538V20.0156H32.4675C32.4675 19.6245 32.3879 19.2782 32.2288 18.9766C32.0697 18.6716 31.846 18.4313 31.5577 18.2557C31.2726 18.08 30.9379 17.9922 30.5534 17.9922C30.1358 17.9922 29.7712 18.0949 29.4597 18.3004C29.1514 18.5026 28.9128 18.7678 28.7437 19.0959C28.578 19.4207 28.4952 19.7737 28.4952 20.1548V21.0249C28.4952 21.5353 28.5847 21.9695 28.7636 22.3274C28.9459 22.6854 29.1995 22.9588 29.5243 23.1477C29.8491 23.3333 30.2286 23.4261 30.6628 23.4261C30.9445 23.4261 31.2014 23.3864 31.4334 23.3068C31.6654 23.224 31.8659 23.1013 32.0349 22.9389C32.204 22.7765 32.3332 22.576 32.4227 22.3374L33.8297 22.5909C33.717 23.0052 33.5148 23.3681 33.2232 23.6797C32.9348 23.9879 32.5719 24.2282 32.1344 24.4006C31.7002 24.5696 31.2047 24.6541 30.6479 24.6541ZM38.0758 24.669C37.5919 24.669 37.1544 24.5795 36.7633 24.4006C36.3722 24.2183 36.0623 23.9548 35.8336 23.6101C35.6082 23.2654 35.4955 22.8428 35.4955 22.3423C35.4955 21.9115 35.5784 21.5568 35.7441 21.2784C35.9098 21 36.1335 20.7796 36.4153 20.6172C36.697 20.4548 37.0119 20.3321 37.3599 20.2493C37.7079 20.1664 38.0625 20.1035 38.4238 20.0604C38.8812 20.0073 39.2524 19.9643 39.5374 19.9311C39.8225 19.8946 40.0296 19.8366 40.1589 19.7571C40.2881 19.6776 40.3528 19.5483 40.3528 19.3693V19.3345C40.3528 18.9003 40.2301 18.5639 39.9849 18.3253C39.7429 18.0866 39.3816 17.9673 38.9011 17.9673C38.4006 17.9673 38.0062 18.0784 37.7178 18.3004C37.4328 18.5192 37.2356 18.7628 37.1262 19.0312L35.7292 18.7131C35.8949 18.2491 36.1369 17.8745 36.455 17.5895C36.7765 17.3011 37.1461 17.0923 37.5637 16.9631C37.9813 16.8305 38.4205 16.7642 38.8812 16.7642C39.1861 16.7642 39.5092 16.8007 39.8506 16.8736C40.1953 16.9432 40.5168 17.0724 40.8151 17.2614C41.1167 17.4503 41.3637 17.7204 41.5559 18.0717C41.7481 18.4197 41.8442 18.8722 41.8442 19.429V24.5H40.3925V23.456H40.3329C40.2368 23.6482 40.0926 23.8371 39.9003 24.0227C39.7081 24.2083 39.4612 24.3625 39.1596 24.4851C38.858 24.6077 38.4967 24.669 38.0758 24.669ZM38.3989 23.4759C38.8099 23.4759 39.1612 23.3946 39.4529 23.2322C39.7479 23.0698 39.9716 22.8577 40.1241 22.5959C40.2798 22.3307 40.3577 22.0473 40.3577 21.7457V20.7614C40.3047 20.8144 40.202 20.8641 40.0495 20.9105C39.9003 20.9536 39.7297 20.9917 39.5374 21.0249C39.3452 21.0547 39.1579 21.0829 38.9756 21.1094C38.7933 21.1326 38.6409 21.1525 38.5182 21.169C38.2299 21.2055 37.9664 21.2668 37.7278 21.353C37.4924 21.4392 37.3035 21.5634 37.161 21.7259C37.0218 21.8849 36.9522 22.0971 36.9522 22.3622C36.9522 22.7301 37.0881 23.0085 37.3599 23.1974C37.6316 23.383 37.978 23.4759 38.3989 23.4759ZM46.9628 24.6491C46.3464 24.6491 45.7962 24.4917 45.3123 24.1768C44.8317 23.8587 44.4538 23.4062 44.1787 22.8196C43.907 22.2296 43.7711 21.522 43.7711 20.6967C43.7711 19.8714 43.9086 19.1655 44.1837 18.5788C44.4621 17.9922 44.8433 17.5431 45.3272 17.2315C45.8111 16.92 46.3596 16.7642 46.9728 16.7642C47.4467 16.7642 47.8279 16.8438 48.1162 17.0028C48.4079 17.1586 48.6333 17.3409 48.7924 17.5497C48.9548 17.7585 49.0807 17.9425 49.1702 18.1016H49.2597V14.3182H50.7462V24.5H49.2945V23.3118H49.1702C49.0807 23.4742 48.9515 23.6598 48.7824 23.8686C48.6167 24.0774 48.388 24.2597 48.0964 24.4155C47.8047 24.5713 47.4269 24.6491 46.9628 24.6491ZM47.291 23.3814C47.7185 23.3814 48.0798 23.2687 48.3748 23.0433C48.6731 22.8146 48.8984 22.4981 49.0509 22.0938C49.2067 21.6894 49.2846 21.2187 49.2846 20.6818C49.2846 20.1515 49.2083 19.6875 49.0559 19.2898C48.9034 18.892 48.6797 18.5821 48.3847 18.3601C48.0897 18.138 47.7252 18.027 47.291 18.027C46.8435 18.027 46.4707 18.143 46.1724 18.375C45.8741 18.607 45.6487 18.9235 45.4962 19.3246C45.3471 19.7256 45.2725 20.178 45.2725 20.6818C45.2725 21.1922 45.3487 21.6513 45.5012 22.0589C45.6537 22.4666 45.879 22.7898 46.1773 23.0284C46.4789 23.2637 46.8502 23.3814 47.291 23.3814ZM60.6976 16.8636V18.0568H56.5264V16.8636H60.6976ZM57.645 15.0341H59.1315V22.2578C59.1315 22.5462 59.1746 22.7633 59.2608 22.9091C59.3469 23.0516 59.458 23.1494 59.5939 23.2024C59.7331 23.2521 59.8839 23.277 60.0463 23.277C60.1656 23.277 60.27 23.2687 60.3595 23.2521C60.449 23.2356 60.5186 23.2223 60.5683 23.2124L60.8368 24.4403C60.7506 24.4735 60.628 24.5066 60.4689 24.5398C60.3098 24.5762 60.1109 24.5961 59.8723 24.5994C59.4812 24.6061 59.1166 24.5365 58.7785 24.3906C58.4405 24.2448 58.167 24.0194 57.9582 23.7145C57.7494 23.4096 57.645 23.0268 57.645 22.5661V15.0341ZM64.2725 19.9659V24.5H62.786V14.3182H64.2526V18.1065H64.3471C64.526 17.6955 64.7995 17.3691 65.1674 17.1271C65.5353 16.8852 66.0158 16.7642 66.6091 16.7642C67.1328 16.7642 67.5902 16.8719 67.9813 17.0874C68.3757 17.3028 68.6806 17.6243 68.8961 18.0518C69.1148 18.4761 69.2242 19.0064 69.2242 19.6428V24.5H67.7377V19.8217C67.7377 19.2616 67.5935 18.8274 67.3051 18.5192C67.0168 18.2076 66.6158 18.0518 66.102 18.0518C65.7507 18.0518 65.4358 18.1264 65.1574 18.2756C64.8823 18.4247 64.6652 18.6435 64.5061 18.9318C64.3504 19.2169 64.2725 19.5616 64.2725 19.9659ZM74.779 24.6541C74.0267 24.6541 73.3787 24.4934 72.8351 24.1719C72.2949 23.8471 71.8773 23.3913 71.5823 22.8047C71.2906 22.2147 71.1448 21.5237 71.1448 20.7315C71.1448 19.9493 71.2906 19.2599 71.5823 18.6634C71.8773 18.0668 72.2883 17.6011 72.8153 17.2663C73.3456 16.9316 73.9654 16.7642 74.6746 16.7642C75.1055 16.7642 75.5231 16.8355 75.9275 16.978C76.3318 17.1205 76.6948 17.3442 77.0163 17.6491C77.3378 17.9541 77.5913 18.3501 77.7769 18.8374C77.9625 19.3213 78.0553 19.9096 78.0553 20.6023V21.1293H71.985V20.0156H76.5986C76.5986 19.6245 76.5191 19.2782 76.36 18.9766C76.2009 18.6716 75.9772 18.4313 75.6888 18.2557C75.4038 18.08 75.069 17.9922 74.6846 17.9922C74.267 17.9922 73.9024 18.0949 73.5908 18.3004C73.2826 18.5026 73.044 18.7678 72.8749 19.0959C72.7092 19.4207 72.6263 19.7737 72.6263 20.1548V21.0249C72.6263 21.5353 72.7158 21.9695 72.8948 22.3274C73.0771 22.6854 73.3306 22.9588 73.6555 23.1477C73.9803 23.3333 74.3598 23.4261 74.794 23.4261C75.0757 23.4261 75.3325 23.3864 75.5646 23.3068C75.7966 23.224 75.9971 23.1013 76.1661 22.9389C76.3351 22.7765 76.4644 22.576 76.5539 22.3374L77.9609 22.5909C77.8482 23.0052 77.646 23.3681 77.3543 23.6797C77.066 23.9879 76.703 24.2282 76.2655 24.4006C75.8314 24.5696 75.3359 24.6541 74.779 24.6541ZM84.089 24.5V14.3182H85.6253V18.7429H90.7013V14.3182H92.2424V24.5H90.7013V20.0604H85.6253V24.5H84.089ZM96.8627 24.669C96.3787 24.669 95.9412 24.5795 95.5502 24.4006C95.1591 24.2183 94.8492 23.9548 94.6205 23.6101C94.3951 23.2654 94.2824 22.8428 94.2824 22.3423C94.2824 21.9115 94.3653 21.5568 94.531 21.2784C94.6967 21 94.9204 20.7796 95.2021 20.6172C95.4839 20.4548 95.7987 20.3321 96.1467 20.2493C96.4948 20.1664 96.8494 20.1035 97.2107 20.0604C97.668 20.0073 98.0393 19.9643 98.3243 19.9311C98.6093 19.8946 98.8165 19.8366 98.9457 19.7571C99.075 19.6776 99.1396 19.5483 99.1396 19.3693V19.3345C99.1396 18.9003 99.017 18.5639 98.7717 18.3253C98.5298 18.0866 98.1685 17.9673 97.6879 17.9673C97.1875 17.9673 96.793 18.0784 96.5047 18.3004C96.2197 18.5192 96.0225 18.7628 95.9131 19.0312L94.5161 18.7131C94.6818 18.2491 94.9237 17.8745 95.2419 17.5895C95.5634 17.3011 95.933 17.0923 96.3506 16.9631C96.7682 16.8305 97.2073 16.7642 97.668 16.7642C97.973 16.7642 98.2961 16.8007 98.6375 16.8736C98.9822 16.9432 99.3037 17.0724 99.602 17.2614C99.9036 17.4503 100.151 17.7204 100.343 18.0717C100.535 18.4197 100.631 18.8722 100.631 19.429V24.5H99.1794V23.456H99.1198C99.0236 23.6482 98.8795 23.8371 98.6872 24.0227C98.495 24.2083 98.2481 24.3625 97.9465 24.4851C97.6448 24.6077 97.2836 24.669 96.8627 24.669ZM97.1858 23.4759C97.5968 23.4759 97.9481 23.3946 98.2398 23.2322C98.5348 23.0698 98.7585 22.8577 98.9109 22.5959C99.0667 22.3307 99.1446 22.0473 99.1446 21.7457V20.7614C99.0916 20.8144 98.9888 20.8641 98.8364 20.9105C98.6872 20.9536 98.5165 20.9917 98.3243 21.0249C98.1321 21.0547 97.9448 21.0829 97.7625 21.1094C97.5802 21.1326 97.4278 21.1525 97.3051 21.169C97.0168 21.2055 96.7533 21.2668 96.5146 21.353C96.2793 21.4392 96.0904 21.5634 95.9479 21.7259C95.8087 21.8849 95.7391 22.0971 95.7391 22.3622C95.7391 22.7301 95.875 23.0085 96.1467 23.1974C96.4185 23.383 96.7649 23.4759 97.1858 23.4759ZM104.378 19.9659V24.5H102.891V16.8636H104.318V18.1065H104.412C104.588 17.7022 104.863 17.3774 105.238 17.1321C105.615 16.8868 106.091 16.7642 106.664 16.7642C107.185 16.7642 107.641 16.8736 108.032 17.0923C108.423 17.3078 108.726 17.6293 108.941 18.0568C109.157 18.4844 109.265 19.013 109.265 19.6428V24.5H107.778V19.8217C107.778 19.2682 107.634 18.8357 107.346 18.5241C107.057 18.2093 106.661 18.0518 106.157 18.0518C105.813 18.0518 105.506 18.1264 105.238 18.2756C104.972 18.4247 104.762 18.6435 104.606 18.9318C104.454 19.2169 104.378 19.5616 104.378 19.9659ZM114.397 24.6491C113.78 24.6491 113.23 24.4917 112.746 24.1768C112.266 23.8587 111.888 23.4062 111.613 22.8196C111.341 22.2296 111.205 21.522 111.205 20.6967C111.205 19.8714 111.343 19.1655 111.618 18.5788C111.896 17.9922 112.277 17.5431 112.761 17.2315C113.245 16.92 113.794 16.7642 114.407 16.7642C114.881 16.7642 115.262 16.8438 115.55 17.0028C115.842 17.1586 116.067 17.3409 116.226 17.5497C116.389 17.7585 116.515 17.9425 116.604 18.1016H116.694V14.3182H118.18V24.5H116.729V23.3118H116.604C116.515 23.4742 116.386 23.6598 116.217 23.8686C116.051 24.0774 115.822 24.2597 115.53 24.4155C115.239 24.5713 114.861 24.6491 114.397 24.6491ZM114.725 23.3814C115.153 23.3814 115.514 23.2687 115.809 23.0433C116.107 22.8146 116.333 22.4981 116.485 22.0938C116.641 21.6894 116.719 21.2187 116.719 20.6818C116.719 20.1515 116.642 19.6875 116.49 19.2898C116.337 18.892 116.114 18.5821 115.819 18.3601C115.524 18.138 115.159 18.027 114.725 18.027C114.278 18.027 113.905 18.143 113.606 18.375C113.308 18.607 113.083 18.9235 112.93 19.3246C112.781 19.7256 112.707 20.178 112.707 20.6818C112.707 21.1922 112.783 21.6513 112.935 22.0589C113.088 22.4666 113.313 22.7898 113.611 23.0284C113.913 23.2637 114.284 23.3814 114.725 23.3814ZM120.701 24.5V14.3182H122.188V18.1016H122.277C122.363 17.9425 122.488 17.7585 122.65 17.5497C122.812 17.3409 123.038 17.1586 123.326 17.0028C123.615 16.8438 123.996 16.7642 124.47 16.7642C125.086 16.7642 125.636 16.92 126.12 17.2315C126.604 17.5431 126.984 17.9922 127.259 18.5788C127.537 19.1655 127.676 19.8714 127.676 20.6967C127.676 21.522 127.539 22.2296 127.264 22.8196C126.989 23.4062 126.611 23.8587 126.13 24.1768C125.65 24.4917 125.101 24.6491 124.485 24.6491C124.021 24.6491 123.641 24.5713 123.346 24.4155C123.054 24.2597 122.826 24.0774 122.66 23.8686C122.494 23.6598 122.367 23.4742 122.277 23.3118H122.153V24.5H120.701ZM122.158 20.6818C122.158 21.2187 122.236 21.6894 122.392 22.0938C122.547 22.4981 122.773 22.8146 123.068 23.0433C123.363 23.2687 123.724 23.3814 124.152 23.3814C124.596 23.3814 124.967 23.2637 125.265 23.0284C125.563 22.7898 125.789 22.4666 125.941 22.0589C126.097 21.6513 126.175 21.1922 126.175 20.6818C126.175 20.178 126.099 19.7256 125.946 19.3246C125.797 18.9235 125.572 18.607 125.27 18.375C124.972 18.143 124.599 18.027 124.152 18.027C123.721 18.027 123.356 18.138 123.058 18.3601C122.763 18.5821 122.539 18.892 122.387 19.2898C122.234 19.6875 122.158 20.1515 122.158 20.6818ZM132.842 24.6541C132.126 24.6541 131.502 24.4901 130.968 24.1619C130.434 23.8338 130.02 23.3748 129.725 22.7848C129.43 22.1948 129.283 21.5054 129.283 20.7166C129.283 19.9245 129.43 19.2318 129.725 18.6385C130.02 18.0452 130.434 17.5845 130.968 17.2564C131.502 16.9283 132.126 16.7642 132.842 16.7642C133.558 16.7642 134.183 16.9283 134.716 17.2564C135.25 17.5845 135.664 18.0452 135.959 18.6385C136.254 19.2318 136.402 19.9245 136.402 20.7166C136.402 21.5054 136.254 22.1948 135.959 22.7848C135.664 23.3748 135.25 23.8338 134.716 24.1619C134.183 24.4901 133.558 24.6541 132.842 24.6541ZM132.847 23.4062C133.311 23.4062 133.696 23.2836 134.001 23.0384C134.306 22.7931 134.531 22.4666 134.677 22.0589C134.826 21.6513 134.9 21.2022 134.9 20.7116C134.9 20.2244 134.826 19.777 134.677 19.3693C134.531 18.9583 134.306 18.6286 134.001 18.38C133.696 18.1314 133.311 18.0071 132.847 18.0071C132.38 18.0071 131.992 18.1314 131.684 18.38C131.379 18.6286 131.152 18.9583 131.003 19.3693C130.857 19.777 130.784 20.2244 130.784 20.7116C130.784 21.2022 130.857 21.6513 131.003 22.0589C131.152 22.4666 131.379 22.7931 131.684 23.0384C131.992 23.2836 132.38 23.4062 132.847 23.4062ZM141.558 24.6541C140.842 24.6541 140.217 24.4901 139.683 24.1619C139.15 23.8338 138.736 23.3748 138.441 22.7848C138.146 22.1948 137.998 21.5054 137.998 20.7166C137.998 19.9245 138.146 19.2318 138.441 18.6385C138.736 18.0452 139.15 17.5845 139.683 17.2564C140.217 16.9283 140.842 16.7642 141.558 16.7642C142.274 16.7642 142.898 16.9283 143.432 17.2564C143.966 17.5845 144.38 18.0452 144.675 18.6385C144.97 19.2318 145.117 19.9245 145.117 20.7166C145.117 21.5054 144.97 22.1948 144.675 22.7848C144.38 23.3748 143.966 23.8338 143.432 24.1619C142.898 24.4901 142.274 24.6541 141.558 24.6541ZM141.563 23.4062C142.027 23.4062 142.411 23.2836 142.716 23.0384C143.021 22.7931 143.246 22.4666 143.392 22.0589C143.541 21.6513 143.616 21.2022 143.616 20.7116C143.616 20.2244 143.541 19.777 143.392 19.3693C143.246 18.9583 143.021 18.6286 142.716 18.38C142.411 18.1314 142.027 18.0071 141.563 18.0071C141.095 18.0071 140.708 18.1314 140.399 18.38C140.094 18.6286 139.867 18.9583 139.718 19.3693C139.572 19.777 139.5 20.2244 139.5 20.7116C139.5 21.2022 139.572 21.6513 139.718 22.0589C139.867 22.4666 140.094 22.7931 140.399 23.0384C140.708 23.2836 141.095 23.4062 141.563 23.4062ZM148.424 21.9098L148.414 20.0952H148.672L151.715 16.8636H153.495L150.025 20.5426H149.791L148.424 21.9098ZM147.057 24.5V14.3182H148.543V24.5H147.057ZM151.879 24.5L149.145 20.8707L150.169 19.8317L153.704 24.5H151.879Z" fill="white"/>
</svg>
