<svg width="184" height="40" viewBox="0 0 184 40" fill="none"
    xmlns="http://www.w3.org/2000/svg">
    <mask id="path-1-inside-1_18_73" fill="white">
        <path d="M0 8C0 3.58172 3.58172 0 8 0H176C180.418 0 184 3.58172 184 8V32C184 36.4183 180.418 40 176 40H8C3.58172 40 0 36.4183 0 32V8Z"/>
    </mask>
    <path d="M0 8C0 3.58172 3.58172 0 8 0H176C180.418 0 184 3.58172 184 8V32C184 36.4183 180.418 40 176 40H8C3.58172 40 0 36.4183 0 32V8Z" fill="#141414"/>
    <path d="M8 0V1H176V0V-1H8V0ZM184 8H183V32H184H185V8H184ZM176 40V39H8V40V41H176V40ZM0 32H1V8H0H-1V32H0ZM8 40V39C4.13401 39 1 35.866 1 32H0H-1C-1 36.9706 3.02944 41 8 41V40ZM184 32H183C183 35.866 179.866 39 176 39V40V41C180.971 41 185 36.9706 185 32H184ZM176 0V1C179.866 1 183 4.13401 183 8H184H185C185 3.02944 180.971 -1 176 -1V0ZM8 0V-1C3.02944 -1 -1 3.02944 -1 8H0H1C1 4.13401 4.13401 1 8 1V0Z" fill="white" fill-opacity="0.35" mask="url(#path-1-inside-1_18_73)"/>
    <path d="M18.5959 24.5V14.3182H20.1322V23.1776H24.7458V24.5H18.5959ZM29.9502 24.6541C29.1978 24.6541 28.5498 24.4934 28.0063 24.1719C27.466 23.8471 27.0484 23.3913 26.7534 22.8047C26.4618 22.2147 26.3159 21.5237 26.3159 20.7315C26.3159 19.9493 26.4618 19.2599 26.7534 18.6634C27.0484 18.0668 27.4594 17.6011 27.9864 17.2663C28.5167 16.9316 29.1365 16.7642 29.8458 16.7642C30.2766 16.7642 30.6942 16.8355 31.0986 16.978C31.503 17.1205 31.8659 17.3442 32.1874 17.6491C32.5089 17.9541 32.7624 18.3501 32.948 18.8374C33.1336 19.3213 33.2264 19.9096 33.2264 20.6023V21.1293H27.1561V20.0156H31.7698C31.7698 19.6245 31.6902 19.2782 31.5311 18.9766C31.372 18.6716 31.1483 18.4313 30.86 18.2557C30.5749 18.08 30.2402 17.9922 29.8557 17.9922C29.4381 17.9922 29.0735 18.0949 28.762 18.3004C28.4537 18.5026 28.2151 18.7678 28.046 19.0959C27.8803 19.4207 27.7975 19.7737 27.7975 20.1548V21.0249C27.7975 21.5353 27.887 21.9695 28.0659 22.3274C28.2482 22.6854 28.5018 22.9588 28.8266 23.1477C29.1514 23.3333 29.5309 23.4261 29.9651 23.4261C30.2468 23.4261 30.5037 23.3864 30.7357 23.3068C30.9677 23.224 31.1682 23.1013 31.3372 22.9389C31.5063 22.7765 31.6355 22.576 31.725 22.3374L33.132 22.5909C33.0193 23.0052 32.8171 23.3681 32.5255 23.6797C32.2371 23.9879 31.8742 24.2282 31.4367 24.4006C31.0025 24.5696 30.507 24.6541 29.9502 24.6541ZM37.3781 24.669C36.8942 24.669 36.4567 24.5795 36.0656 24.4006C35.6745 24.2183 35.3646 23.9548 35.1359 23.6101C34.9105 23.2654 34.7978 22.8428 34.7978 22.3423C34.7978 21.9115 34.8807 21.5568 35.0464 21.2784C35.2121 21 35.4358 20.7796 35.7176 20.6172C35.9993 20.4548 36.3142 20.3321 36.6622 20.2493C37.0102 20.1664 37.3648 20.1035 37.7261 20.0604C38.1835 20.0073 38.5547 19.9643 38.8397 19.9311C39.1248 19.8946 39.3319 19.8366 39.4612 19.7571C39.5904 19.6776 39.6551 19.5483 39.6551 19.3693V19.3345C39.6551 18.9003 39.5324 18.5639 39.2872 18.3253C39.0452 18.0866 38.6839 17.9673 38.2034 17.9673C37.7029 17.9673 37.3085 18.0784 37.0201 18.3004C36.7351 18.5192 36.5379 18.7628 36.4285 19.0312L35.0315 18.7131C35.1972 18.2491 35.4392 17.8745 35.7573 17.5895C36.0788 17.3011 36.4484 17.0923 36.866 16.9631C37.2836 16.8305 37.7228 16.7642 38.1835 16.7642C38.4884 16.7642 38.8115 16.8007 39.1529 16.8736C39.4976 16.9432 39.8191 17.0724 40.1174 17.2614C40.419 17.4503 40.666 17.7204 40.8582 18.0717C41.0504 18.4197 41.1465 18.8722 41.1465 19.429V24.5H39.6948V23.456H39.6352C39.5391 23.6482 39.3949 23.8371 39.2026 24.0227C39.0104 24.2083 38.7635 24.3625 38.4619 24.4851C38.1603 24.6077 37.799 24.669 37.3781 24.669ZM37.7012 23.4759C38.1122 23.4759 38.4635 23.3946 38.7552 23.2322C39.0502 23.0698 39.2739 22.8577 39.4264 22.5959C39.5821 22.3307 39.66 22.0473 39.66 21.7457V20.7614C39.607 20.8144 39.5043 20.8641 39.3518 20.9105C39.2026 20.9536 39.032 20.9917 38.8397 21.0249C38.6475 21.0547 38.4602 21.0829 38.2779 21.1094C38.0956 21.1326 37.9432 21.1525 37.8205 21.169C37.5322 21.2055 37.2687 21.2668 37.0301 21.353C36.7947 21.4392 36.6058 21.5634 36.4633 21.7259C36.3241 21.8849 36.2545 22.0971 36.2545 22.3622C36.2545 22.7301 36.3904 23.0085 36.6622 23.1974C36.9339 23.383 37.2803 23.4759 37.7012 23.4759ZM43.4065 24.5V16.8636H44.8433V18.0767H44.9228C45.062 17.6657 45.3073 17.3426 45.6586 17.1072C46.0132 16.8686 46.4143 16.7493 46.8617 16.7493C46.9545 16.7493 47.0639 16.7526 47.1899 16.7592C47.3191 16.7659 47.4202 16.7741 47.4931 16.7841V18.206C47.4335 18.1894 47.3274 18.1712 47.1749 18.1513C47.0225 18.1281 46.87 18.1165 46.7176 18.1165C46.3662 18.1165 46.053 18.1911 45.7779 18.3402C45.5061 18.486 45.2907 18.6899 45.1316 18.9517C44.9725 19.2102 44.893 19.5052 44.893 19.8366V24.5H43.4065ZM50.546 19.9659V24.5H49.0595V16.8636H50.4864V18.1065H50.5808C50.7565 17.7022 51.0316 17.3774 51.4061 17.1321C51.784 16.8868 52.2596 16.7642 52.833 16.7642C53.3533 16.7642 53.809 16.8736 54.2001 17.0923C54.5912 17.3078 54.8945 17.6293 55.1099 18.0568C55.3254 18.4844 55.4331 19.013 55.4331 19.6428V24.5H53.9466V19.8217C53.9466 19.2682 53.8024 18.8357 53.5141 18.5241C53.2257 18.2093 52.8296 18.0518 52.3259 18.0518C51.9812 18.0518 51.6746 18.1264 51.4061 18.2756C51.141 18.4247 50.9305 18.6435 50.7747 18.9318C50.6223 19.2169 50.546 19.5616 50.546 19.9659ZM63.9141 24.669C63.4302 24.669 62.9927 24.5795 62.6016 24.4006C62.2105 24.2183 61.9006 23.9548 61.6719 23.6101C61.4465 23.2654 61.3338 22.8428 61.3338 22.3423C61.3338 21.9115 61.4167 21.5568 61.5824 21.2784C61.7481 21 61.9719 20.7796 62.2536 20.6172C62.5353 20.4548 62.8502 20.3321 63.1982 20.2493C63.5462 20.1664 63.9008 20.1035 64.2621 20.0604C64.7195 20.0073 65.0907 19.9643 65.3757 19.9311C65.6608 19.8946 65.8679 19.8366 65.9972 19.7571C66.1264 19.6776 66.1911 19.5483 66.1911 19.3693V19.3345C66.1911 18.9003 66.0684 18.5639 65.8232 18.3253C65.5812 18.0866 65.22 17.9673 64.7394 17.9673C64.2389 17.9673 63.8445 18.0784 63.5561 18.3004C63.2711 18.5192 63.0739 18.7628 62.9645 19.0312L61.5675 18.7131C61.7332 18.2491 61.9752 17.8745 62.2933 17.5895C62.6148 17.3011 62.9844 17.0923 63.402 16.9631C63.8196 16.8305 64.2588 16.7642 64.7195 16.7642C65.0244 16.7642 65.3476 16.8007 65.6889 16.8736C66.0336 16.9432 66.3551 17.0724 66.6534 17.2614C66.955 17.4503 67.202 17.7204 67.3942 18.0717C67.5864 18.4197 67.6826 18.8722 67.6826 19.429V24.5H66.2308V23.456H66.1712C66.0751 23.6482 65.9309 23.8371 65.7387 24.0227C65.5464 24.2083 65.2995 24.3625 64.9979 24.4851C64.6963 24.6077 64.335 24.669 63.9141 24.669ZM64.2372 23.4759C64.6482 23.4759 64.9996 23.3946 65.2912 23.2322C65.5862 23.0698 65.8099 22.8577 65.9624 22.5959C66.1182 22.3307 66.196 22.0473 66.196 21.7457V20.7614C66.143 20.8144 66.0403 20.8641 65.8878 20.9105C65.7387 20.9536 65.568 20.9917 65.3757 21.0249C65.1835 21.0547 64.9962 21.0829 64.8139 21.1094C64.6317 21.1326 64.4792 21.1525 64.3566 21.169C64.0682 21.2055 63.8047 21.2668 63.5661 21.353C63.3308 21.4392 63.1418 21.5634 62.9993 21.7259C62.8601 21.8849 62.7905 22.0971 62.7905 22.3622C62.7905 22.7301 62.9264 23.0085 63.1982 23.1974C63.47 23.383 63.8163 23.4759 64.2372 23.4759ZM70.0618 24.5V14.3182H71.5483V18.1016H71.6378C71.724 17.9425 71.8483 17.7585 72.0107 17.5497C72.1731 17.3409 72.3985 17.1586 72.6868 17.0028C72.9752 16.8438 73.3563 16.7642 73.8303 16.7642C74.4468 16.7642 74.9969 16.92 75.4808 17.2315C75.9647 17.5431 76.3442 17.9922 76.6193 18.5788C76.8977 19.1655 77.0369 19.8714 77.0369 20.6967C77.0369 21.522 76.8994 22.2296 76.6243 22.8196C76.3492 23.4062 75.9714 23.8587 75.4908 24.1768C75.0102 24.4917 74.4617 24.6491 73.8452 24.6491C73.3812 24.6491 73.0017 24.5713 72.7067 24.4155C72.415 24.2597 72.1863 24.0774 72.0206 23.8686C71.8549 23.6598 71.7273 23.4742 71.6378 23.3118H71.5135V24.5H70.0618ZM71.5185 20.6818C71.5185 21.2187 71.5964 21.6894 71.7521 22.0938C71.9079 22.4981 72.1333 22.8146 72.4283 23.0433C72.7233 23.2687 73.0845 23.3814 73.5121 23.3814C73.9562 23.3814 74.3274 23.2637 74.6257 23.0284C74.924 22.7898 75.1494 22.4666 75.3019 22.0589C75.4576 21.6513 75.5355 21.1922 75.5355 20.6818C75.5355 20.178 75.4593 19.7256 75.3068 19.3246C75.1577 18.9235 74.9323 18.607 74.6307 18.375C74.3324 18.143 73.9595 18.027 73.5121 18.027C73.0812 18.027 72.7166 18.138 72.4183 18.3601C72.1234 18.5821 71.8996 18.892 71.7472 19.2898C71.5947 19.6875 71.5185 20.1515 71.5185 20.6818ZM82.2028 24.6541C81.4869 24.6541 80.8621 24.4901 80.3285 24.1619C79.7949 23.8338 79.3806 23.3748 79.0856 22.7848C78.7906 22.1948 78.6431 21.5054 78.6431 20.7166C78.6431 19.9245 78.7906 19.2318 79.0856 18.6385C79.3806 18.0452 79.7949 17.5845 80.3285 17.2564C80.8621 16.9283 81.4869 16.7642 82.2028 16.7642C82.9187 16.7642 83.5435 16.9283 84.0771 17.2564C84.6107 17.5845 85.025 18.0452 85.32 18.6385C85.615 19.2318 85.7624 19.9245 85.7624 20.7166C85.7624 21.5054 85.615 22.1948 85.32 22.7848C85.025 23.3748 84.6107 23.8338 84.0771 24.1619C83.5435 24.4901 82.9187 24.6541 82.2028 24.6541ZM82.2078 23.4062C82.6718 23.4062 83.0562 23.2836 83.3612 23.0384C83.6661 22.7931 83.8915 22.4666 84.0373 22.0589C84.1864 21.6513 84.261 21.2022 84.261 20.7116C84.261 20.2244 84.1864 19.777 84.0373 19.3693C83.8915 18.9583 83.6661 18.6286 83.3612 18.38C83.0562 18.1314 82.6718 18.0071 82.2078 18.0071C81.7404 18.0071 81.3526 18.1314 81.0444 18.38C80.7395 18.6286 80.5124 18.9583 80.3633 19.3693C80.2175 19.777 80.1445 20.2244 80.1445 20.7116C80.1445 21.2022 80.2175 21.6513 80.3633 22.0589C80.5124 22.4666 80.7395 22.7931 81.0444 23.0384C81.3526 23.2836 81.7404 23.4062 82.2078 23.4062ZM92.5391 21.3331V16.8636H94.0305V24.5H92.5689V23.1776H92.4893C92.3137 23.5852 92.032 23.925 91.6442 24.1967C91.2597 24.4652 90.7808 24.5994 90.2074 24.5994C89.7169 24.5994 89.2827 24.4917 88.9048 24.2763C88.5303 24.0575 88.2353 23.7344 88.0199 23.3068C87.8078 22.8793 87.7017 22.3506 87.7017 21.7209V16.8636H89.1882V21.5419C89.1882 22.0623 89.3324 22.4766 89.6207 22.7848C89.9091 23.093 90.2836 23.2472 90.7443 23.2472C91.0227 23.2472 91.2995 23.1776 91.5746 23.0384C91.853 22.8991 92.0833 22.6887 92.2656 22.407C92.4512 22.1252 92.5424 21.7673 92.5391 21.3331ZM99.8725 16.8636V18.0568H95.7013V16.8636H99.8725ZM96.82 15.0341H98.3065V22.2578C98.3065 22.5462 98.3496 22.7633 98.4357 22.9091C98.5219 23.0516 98.6329 23.1494 98.7688 23.2024C98.908 23.2521 99.0588 23.277 99.2212 23.277C99.3406 23.277 99.445 23.2687 99.5344 23.2521C99.6239 23.2356 99.6935 23.2223 99.7433 23.2124L100.012 24.4403C99.9255 24.4735 99.8029 24.5066 99.6438 24.5398C99.4847 24.5762 99.2859 24.5961 99.0472 24.5994C98.6561 24.6061 98.2915 24.5365 97.9535 24.3906C97.6154 24.2448 97.342 24.0194 97.1332 23.7145C96.9244 23.4096 96.82 23.0268 96.82 22.5661V15.0341ZM107.268 14.3182V24.5H105.782V14.3182H107.268ZM109.548 24.5V16.8636H111.035V24.5H109.548ZM110.299 15.6854C110.04 15.6854 109.818 15.5992 109.633 15.4268C109.45 15.2512 109.359 15.0424 109.359 14.8004C109.359 14.5552 109.45 14.3464 109.633 14.174C109.818 13.9983 110.04 13.9105 110.299 13.9105C110.558 13.9105 110.778 13.9983 110.96 14.174C111.146 14.3464 111.239 14.5552 111.239 14.8004C111.239 15.0424 111.146 15.2512 110.96 15.4268C110.778 15.5992 110.558 15.6854 110.299 15.6854ZM116.531 24.6541C115.792 24.6541 115.156 24.4867 114.622 24.152C114.092 23.8139 113.684 23.3482 113.399 22.755C113.114 22.1617 112.972 21.4822 112.972 20.7166C112.972 19.9411 113.117 19.2566 113.409 18.6634C113.701 18.0668 114.112 17.6011 114.642 17.2663C115.172 16.9316 115.797 16.7642 116.516 16.7642C117.096 16.7642 117.613 16.8719 118.067 17.0874C118.522 17.2995 118.888 17.5978 119.166 17.9822C119.448 18.3667 119.615 18.8158 119.668 19.3295H118.222C118.142 18.9716 117.96 18.6634 117.675 18.4048C117.393 18.1463 117.015 18.017 116.541 18.017C116.127 18.017 115.764 18.1264 115.452 18.3452C115.144 18.5606 114.904 18.8688 114.732 19.2699C114.559 19.6676 114.473 20.1383 114.473 20.6818C114.473 21.2386 114.557 21.7192 114.727 22.1236C114.896 22.5279 115.134 22.8411 115.442 23.0632C115.754 23.2853 116.12 23.3963 116.541 23.3963C116.823 23.3963 117.078 23.3449 117.307 23.2422C117.539 23.1361 117.733 22.9853 117.888 22.7898C118.048 22.5942 118.159 22.3589 118.222 22.0838H119.668C119.615 22.5777 119.455 23.0185 119.186 23.4062C118.918 23.794 118.558 24.099 118.107 24.321C117.66 24.5431 117.134 24.6541 116.531 24.6541ZM124.829 24.6541C124.077 24.6541 123.429 24.4934 122.885 24.1719C122.345 23.8471 121.927 23.3913 121.632 22.8047C121.341 22.2147 121.195 21.5237 121.195 20.7315C121.195 19.9493 121.341 19.2599 121.632 18.6634C121.927 18.0668 122.338 17.6011 122.865 17.2663C123.396 16.9316 124.015 16.7642 124.725 16.7642C125.156 16.7642 125.573 16.8355 125.978 16.978C126.382 17.1205 126.745 17.3442 127.066 17.6491C127.388 17.9541 127.641 18.3501 127.827 18.8374C128.013 19.3213 128.105 19.9096 128.105 20.6023V21.1293H122.035V20.0156H126.649C126.649 19.6245 126.569 19.2782 126.41 18.9766C126.251 18.6716 126.027 18.4313 125.739 18.2557C125.454 18.08 125.119 17.9922 124.735 17.9922C124.317 17.9922 123.952 18.0949 123.641 18.3004C123.333 18.5026 123.094 18.7678 122.925 19.0959C122.759 19.4207 122.676 19.7737 122.676 20.1548V21.0249C122.676 21.5353 122.766 21.9695 122.945 22.3274C123.127 22.6854 123.381 22.9588 123.706 23.1477C124.03 23.3333 124.41 23.4261 124.844 23.4261C125.126 23.4261 125.383 23.3864 125.615 23.3068C125.847 23.224 126.047 23.1013 126.216 22.9389C126.385 22.7765 126.515 22.576 126.604 22.3374L128.011 22.5909C127.898 23.0052 127.696 23.3681 127.404 23.6797C127.116 23.9879 126.753 24.2282 126.316 24.4006C125.881 24.5696 125.386 24.6541 124.829 24.6541ZM131.521 19.9659V24.5H130.035V16.8636H131.462V18.1065H131.556C131.732 17.7022 132.007 17.3774 132.381 17.1321C132.759 16.8868 133.235 16.7642 133.808 16.7642C134.329 16.7642 134.784 16.8736 135.175 17.0923C135.566 17.3078 135.87 17.6293 136.085 18.0568C136.301 18.4844 136.408 19.013 136.408 19.6428V24.5H134.922V19.8217C134.922 19.2682 134.778 18.8357 134.489 18.5241C134.201 18.2093 133.805 18.0518 133.301 18.0518C132.956 18.0518 132.65 18.1264 132.381 18.2756C132.116 18.4247 131.906 18.6435 131.75 18.9318C131.597 19.2169 131.521 19.5616 131.521 19.9659ZM144.404 18.728L143.057 18.9666C143.001 18.7943 142.911 18.6302 142.788 18.4744C142.669 18.3187 142.507 18.1911 142.301 18.0916C142.096 17.9922 141.839 17.9425 141.531 17.9425C141.11 17.9425 140.758 18.0369 140.477 18.2259C140.195 18.4115 140.054 18.6518 140.054 18.9467C140.054 19.2019 140.149 19.4074 140.337 19.5632C140.526 19.719 140.831 19.8466 141.252 19.946L142.465 20.2244C143.168 20.3868 143.692 20.6371 144.036 20.9751C144.381 21.3132 144.553 21.7524 144.553 22.2926C144.553 22.75 144.421 23.1577 144.156 23.5156C143.894 23.8703 143.528 24.1487 143.057 24.3509C142.59 24.553 142.048 24.6541 141.431 24.6541C140.576 24.6541 139.878 24.4718 139.338 24.1072C138.798 23.7393 138.467 23.2173 138.344 22.5412L139.781 22.3224C139.87 22.697 140.054 22.9804 140.333 23.1726C140.611 23.3615 140.974 23.456 141.421 23.456C141.909 23.456 142.298 23.3549 142.59 23.1527C142.881 22.9472 143.027 22.697 143.027 22.402C143.027 22.1634 142.938 21.9628 142.759 21.8004C142.583 21.638 142.313 21.5154 141.948 21.4325L140.656 21.1491C139.943 20.9867 139.416 20.7282 139.075 20.3736C138.737 20.0189 138.568 19.5698 138.568 19.0263C138.568 18.5755 138.694 18.1811 138.945 17.843C139.197 17.505 139.545 17.2415 139.989 17.0526C140.434 16.8603 140.942 16.7642 141.516 16.7642C142.341 16.7642 142.991 16.9432 143.465 17.3011C143.939 17.6558 144.252 18.1314 144.404 18.728ZM146.468 24.5V16.8636H147.954V24.5H146.468ZM147.219 15.6854C146.96 15.6854 146.738 15.5992 146.552 15.4268C146.37 15.2512 146.279 15.0424 146.279 14.8004C146.279 14.5552 146.37 14.3464 146.552 14.174C146.738 13.9983 146.96 13.9105 147.219 13.9105C147.477 13.9105 147.697 13.9983 147.88 14.174C148.065 14.3464 148.158 14.5552 148.158 14.8004C148.158 15.0424 148.065 15.2512 147.88 15.4268C147.697 15.5992 147.477 15.6854 147.219 15.6854ZM151.721 19.9659V24.5H150.234V16.8636H151.661V18.1065H151.755C151.931 17.7022 152.206 17.3774 152.581 17.1321C152.959 16.8868 153.434 16.7642 154.008 16.7642C154.528 16.7642 154.984 16.8736 155.375 17.0923C155.766 17.3078 156.069 17.6293 156.285 18.0568C156.5 18.4844 156.608 19.013 156.608 19.6428V24.5H155.121V19.8217C155.121 19.2682 154.977 18.8357 154.689 18.5241C154.4 18.2093 154.004 18.0518 153.5 18.0518C153.156 18.0518 152.849 18.1264 152.581 18.2756C152.316 18.4247 152.105 18.6435 151.949 18.9318C151.797 19.2169 151.721 19.5616 151.721 19.9659ZM162.083 27.5227C161.476 27.5227 160.954 27.4432 160.517 27.2841C160.083 27.125 159.728 26.9145 159.453 26.6527C159.178 26.3909 158.972 26.1042 158.837 25.7926L160.114 25.2656C160.204 25.4115 160.323 25.5656 160.472 25.728C160.625 25.8937 160.83 26.0346 161.089 26.1506C161.351 26.2666 161.687 26.3246 162.098 26.3246C162.661 26.3246 163.127 26.187 163.495 25.9119C163.863 25.6402 164.047 25.206 164.047 24.6094V23.108H163.952C163.863 23.2704 163.734 23.451 163.565 23.6499C163.399 23.8487 163.17 24.0211 162.878 24.1669C162.587 24.3127 162.207 24.3857 161.74 24.3857C161.137 24.3857 160.593 24.2448 160.109 23.9631C159.629 23.678 159.248 23.2588 158.966 22.7053C158.687 22.1484 158.548 21.464 158.548 20.652C158.548 19.84 158.686 19.1439 158.961 18.5639C159.239 17.9839 159.62 17.5398 160.104 17.2315C160.588 16.92 161.137 16.7642 161.75 16.7642C162.224 16.7642 162.607 16.8438 162.898 17.0028C163.19 17.1586 163.417 17.3409 163.579 17.5497C163.745 17.7585 163.873 17.9425 163.962 18.1016H164.072V16.8636H165.528V24.669C165.528 25.3253 165.376 25.8639 165.071 26.2848C164.766 26.7057 164.353 27.0173 163.833 27.2195C163.316 27.4216 162.733 27.5227 162.083 27.5227ZM162.068 23.1527C162.496 23.1527 162.857 23.0533 163.152 22.8544C163.45 22.6522 163.676 22.3639 163.828 21.9893C163.984 21.6115 164.062 21.1591 164.062 20.6321C164.062 20.1184 163.985 19.666 163.833 19.2749C163.681 18.8838 163.457 18.5788 163.162 18.3601C162.867 18.138 162.502 18.027 162.068 18.027C161.621 18.027 161.248 18.143 160.95 18.375C160.651 18.6037 160.426 18.9152 160.273 19.3097C160.124 19.7041 160.05 20.1449 160.05 20.6321C160.05 21.1326 160.126 21.5717 160.278 21.9496C160.431 22.3274 160.656 22.6224 160.954 22.8345C161.256 23.0466 161.627 23.1527 162.068 23.1527Z" fill="white"/>
</svg>
