<svg width="174" height="40" viewBox="0 0 174 40" fill="none"
    xmlns="http://www.w3.org/2000/svg">
    <rect width="174" height="40" rx="8" fill="#26BBFF"/>
    <path d="M17.4 24.5V14.3182H23.7835V15.6406H18.9362V18.7429H23.4504V20.0604H18.9362V23.1776H23.8432V24.5H17.4ZM27.1695 16.8636L28.8549 19.8366L30.5552 16.8636H32.1809L29.7995 20.6818L32.2008 24.5H30.5751L28.8549 21.6463L27.1397 24.5H25.509L27.8854 20.6818L25.5389 16.8636H27.1695ZM33.9872 27.3636V16.8636H35.4389V18.1016H35.5632C35.6493 17.9425 35.7736 17.7585 35.936 17.5497C36.0984 17.3409 36.3238 17.1586 36.6122 17.0028C36.9005 16.8438 37.2817 16.7642 37.7556 16.7642C38.3721 16.7642 38.9223 16.92 39.4062 17.2315C39.8901 17.5431 40.2696 17.9922 40.5447 18.5788C40.8231 19.1655 40.9623 19.8714 40.9623 20.6967C40.9623 21.522 40.8248 22.2296 40.5497 22.8196C40.2746 23.4062 39.8967 23.8587 39.4162 24.1768C38.9356 24.4917 38.387 24.6491 37.7706 24.6491C37.3065 24.6491 36.927 24.5713 36.6321 24.4155C36.3404 24.2597 36.1117 24.0774 35.946 23.8686C35.7803 23.6598 35.6527 23.4742 35.5632 23.3118H35.4737V27.3636H33.9872ZM35.4439 20.6818C35.4439 21.2187 35.5217 21.6894 35.6775 22.0938C35.8333 22.4981 36.0587 22.8146 36.3537 23.0433C36.6486 23.2687 37.0099 23.3814 37.4375 23.3814C37.8816 23.3814 38.2528 23.2637 38.5511 23.0284C38.8494 22.7898 39.0748 22.4666 39.2272 22.0589C39.383 21.6513 39.4609 21.1922 39.4609 20.6818C39.4609 20.178 39.3847 19.7256 39.2322 19.3246C39.0831 18.9235 38.8577 18.607 38.5561 18.375C38.2578 18.143 37.8849 18.027 37.4375 18.027C37.0066 18.027 36.642 18.138 36.3437 18.3601C36.0487 18.5821 35.825 18.892 35.6725 19.2898C35.5201 19.6875 35.4439 20.1515 35.4439 20.6818ZM44.3943 14.3182V24.5H42.9078V14.3182H44.3943ZM49.8908 24.6541C49.1748 24.6541 48.5501 24.4901 48.0165 24.1619C47.4828 23.8338 47.0685 23.3748 46.7736 22.7848C46.4786 22.1948 46.3311 21.5054 46.3311 20.7166C46.3311 19.9245 46.4786 19.2318 46.7736 18.6385C47.0685 18.0452 47.4828 17.5845 48.0165 17.2564C48.5501 16.9283 49.1748 16.7642 49.8908 16.7642C50.6067 16.7642 51.2314 16.9283 51.765 17.2564C52.2987 17.5845 52.713 18.0452 53.0079 18.6385C53.3029 19.2318 53.4504 19.9245 53.4504 20.7166C53.4504 21.5054 53.3029 22.1948 53.0079 22.7848C52.713 23.3748 52.2987 23.8338 51.765 24.1619C51.2314 24.4901 50.6067 24.6541 49.8908 24.6541ZM49.8957 23.4062C50.3597 23.4062 50.7442 23.2836 51.0491 23.0384C51.3541 22.7931 51.5794 22.4666 51.7253 22.0589C51.8744 21.6513 51.949 21.2022 51.949 20.7116C51.949 20.2244 51.8744 19.777 51.7253 19.3693C51.5794 18.9583 51.3541 18.6286 51.0491 18.38C50.7442 18.1314 50.3597 18.0071 49.8957 18.0071C49.4284 18.0071 49.0406 18.1314 48.7324 18.38C48.4274 18.6286 48.2004 18.9583 48.0513 19.3693C47.9054 19.777 47.8325 20.2244 47.8325 20.7116C47.8325 21.2022 47.9054 21.6513 48.0513 22.0589C48.2004 22.4666 48.4274 22.7931 48.7324 23.0384C49.0406 23.2836 49.4284 23.4062 49.8957 23.4062ZM55.3897 24.5V16.8636H56.8265V18.0767H56.906C57.0452 17.6657 57.2905 17.3426 57.6418 17.1072C57.9964 16.8686 58.3975 16.7493 58.8449 16.7493C58.9377 16.7493 59.0471 16.7526 59.1731 16.7592C59.3023 16.7659 59.4034 16.7741 59.4763 16.7841V18.206C59.4167 18.1894 59.3106 18.1712 59.1581 18.1513C59.0057 18.1281 58.8532 18.1165 58.7008 18.1165C58.3494 18.1165 58.0362 18.1911 57.7611 18.3402C57.4893 18.486 57.2739 18.6899 57.1148 18.9517C56.9557 19.2102 56.8762 19.5052 56.8762 19.8366V24.5H55.3897ZM64.0605 24.6541C63.3081 24.6541 62.6601 24.4934 62.1166 24.1719C61.5763 23.8471 61.1587 23.3913 60.8637 22.8047C60.5721 22.2147 60.4262 21.5237 60.4262 20.7315C60.4262 19.9493 60.5721 19.2599 60.8637 18.6634C61.1587 18.0668 61.5697 17.6011 62.0967 17.2663C62.627 16.9316 63.2468 16.7642 63.9561 16.7642C64.3869 16.7642 64.8046 16.8355 65.2089 16.978C65.6133 17.1205 65.9762 17.3442 66.2977 17.6491C66.6192 17.9541 66.8727 18.3501 67.0583 18.8374C67.244 19.3213 67.3368 19.9096 67.3368 20.6023V21.1293H61.2664V20.0156H65.8801C65.8801 19.6245 65.8005 19.2782 65.6414 18.9766C65.4824 18.6716 65.2586 18.4313 64.9703 18.2557C64.6852 18.08 64.3505 17.9922 63.966 17.9922C63.5484 17.9922 63.1838 18.0949 62.8723 18.3004C62.564 18.5026 62.3254 18.7678 62.1564 19.0959C61.9906 19.4207 61.9078 19.7737 61.9078 20.1548V21.0249C61.9078 21.5353 61.9973 21.9695 62.1762 22.3274C62.3585 22.6854 62.6121 22.9588 62.9369 23.1477C63.2617 23.3333 63.6412 23.4261 64.0754 23.4261C64.3571 23.4261 64.614 23.3864 64.846 23.3068C65.078 23.224 65.2785 23.1013 65.4476 22.9389C65.6166 22.7765 65.7458 22.576 65.8353 22.3374L67.2423 22.5909C67.1296 23.0052 66.9274 23.3681 66.6358 23.6797C66.3474 23.9879 65.9845 24.2282 65.547 24.4006C65.1128 24.5696 64.6173 24.6541 64.0605 24.6541ZM76.8158 16.8636V18.0568H72.6446V16.8636H76.8158ZM73.7632 15.0341H75.2497V22.2578C75.2497 22.5462 75.2928 22.7633 75.379 22.9091C75.4652 23.0516 75.5762 23.1494 75.7121 23.2024C75.8513 23.2521 76.0021 23.277 76.1645 23.277C76.2838 23.277 76.3882 23.2687 76.4777 23.2521C76.5672 23.2356 76.6368 23.2223 76.6865 23.2124L76.955 24.4403C76.8688 24.4735 76.7462 24.5066 76.5871 24.5398C76.428 24.5762 76.2291 24.5961 75.9905 24.5994C75.5994 24.6061 75.2348 24.5365 74.8968 24.3906C74.5587 24.2448 74.2853 24.0194 74.0764 23.7145C73.8676 23.4096 73.7632 23.0268 73.7632 22.5661V15.0341ZM80.3907 19.9659V24.5H78.9042V14.3182H80.3708V18.1065H80.4653C80.6443 17.6955 80.9177 17.3691 81.2856 17.1271C81.6535 16.8852 82.1341 16.7642 82.7274 16.7642C83.251 16.7642 83.7084 16.8719 84.0995 17.0874C84.4939 17.3028 84.7989 17.6243 85.0143 18.0518C85.233 18.4761 85.3424 19.0064 85.3424 19.6428V24.5H83.8559V19.8217C83.8559 19.2616 83.7117 18.8274 83.4234 18.5192C83.135 18.2076 82.734 18.0518 82.2203 18.0518C81.8689 18.0518 81.5541 18.1264 81.2757 18.2756C81.0006 18.4247 80.7835 18.6435 80.6244 18.9318C80.4686 19.2169 80.3907 19.5616 80.3907 19.9659ZM90.8973 24.6541C90.1449 24.6541 89.4969 24.4934 88.9534 24.1719C88.4131 23.8471 87.9955 23.3913 87.7005 22.8047C87.4089 22.2147 87.263 21.5237 87.263 20.7315C87.263 19.9493 87.4089 19.2599 87.7005 18.6634C87.9955 18.0668 88.4065 17.6011 88.9335 17.2663C89.4638 16.9316 90.0836 16.7642 90.7929 16.7642C91.2237 16.7642 91.6414 16.8355 92.0457 16.978C92.4501 17.1205 92.813 17.3442 93.1345 17.6491C93.456 17.9541 93.7095 18.3501 93.8951 18.8374C94.0808 19.3213 94.1736 19.9096 94.1736 20.6023V21.1293H88.1032V20.0156H92.7169C92.7169 19.6245 92.6373 19.2782 92.4782 18.9766C92.3192 18.6716 92.0954 18.4313 91.8071 18.2557C91.522 18.08 91.1873 17.9922 90.8028 17.9922C90.3852 17.9922 90.0206 18.0949 89.7091 18.3004C89.4008 18.5026 89.1622 18.7678 88.9932 19.0959C88.8274 19.4207 88.7446 19.7737 88.7446 20.1548V21.0249C88.7446 21.5353 88.8341 21.9695 89.013 22.3274C89.1953 22.6854 89.4489 22.9588 89.7737 23.1477C90.0985 23.3333 90.478 23.4261 90.9122 23.4261C91.1939 23.4261 91.4508 23.3864 91.6828 23.3068C91.9148 23.224 92.1153 23.1013 92.2844 22.9389C92.4534 22.7765 92.5826 22.576 92.6721 22.3374L94.0791 22.5909C93.9664 23.0052 93.7642 23.3681 93.4726 23.6797C93.1842 23.9879 92.8213 24.2282 92.3838 24.4006C91.9496 24.5696 91.4541 24.6541 90.8973 24.6541ZM100.207 24.5V14.3182H103.837C104.629 14.3182 105.285 14.4624 105.805 14.7507C106.326 15.0391 106.715 15.4335 106.974 15.9339C107.232 16.4311 107.361 16.9912 107.361 17.6143C107.361 18.2408 107.23 18.8042 106.969 19.3047C106.71 19.8018 106.319 20.1963 105.795 20.4879C105.275 20.7763 104.62 20.9205 103.832 20.9205H101.336V19.6179H103.692C104.193 19.6179 104.599 19.5317 104.91 19.3594C105.222 19.1837 105.451 18.9451 105.596 18.6435C105.742 18.3419 105.815 17.9988 105.815 17.6143C105.815 17.2299 105.742 16.8885 105.596 16.5902C105.451 16.2919 105.22 16.0582 104.905 15.8892C104.594 15.7202 104.183 15.6357 103.672 15.6357H101.743V24.5H100.207ZM110.81 14.3182V24.5H109.323V14.3182H110.81ZM115.312 24.669C114.828 24.669 114.39 24.5795 113.999 24.4006C113.608 24.2183 113.298 23.9548 113.069 23.6101C112.844 23.2654 112.731 22.8428 112.731 22.3423C112.731 21.9115 112.814 21.5568 112.98 21.2784C113.146 21 113.369 20.7796 113.651 20.6172C113.933 20.4548 114.248 20.3321 114.596 20.2493C114.944 20.1664 115.298 20.1035 115.66 20.0604C116.117 20.0073 116.488 19.9643 116.773 19.9311C117.058 19.8946 117.265 19.8366 117.395 19.7571C117.524 19.6776 117.589 19.5483 117.589 19.3693V19.3345C117.589 18.9003 117.466 18.5639 117.221 18.3253C116.979 18.0866 116.618 17.9673 116.137 17.9673C115.636 17.9673 115.242 18.0784 114.954 18.3004C114.669 18.5192 114.471 18.7628 114.362 19.0312L112.965 18.7131C113.131 18.2491 113.373 17.8745 113.691 17.5895C114.012 17.3011 114.382 17.0923 114.8 16.9631C115.217 16.8305 115.656 16.7642 116.117 16.7642C116.422 16.7642 116.745 16.8007 117.087 16.8736C117.431 16.9432 117.753 17.0724 118.051 17.2614C118.353 17.4503 118.6 17.7204 118.792 18.0717C118.984 18.4197 119.08 18.8722 119.08 19.429V24.5H117.628V23.456H117.569C117.473 23.6482 117.328 23.8371 117.136 24.0227C116.944 24.2083 116.697 24.3625 116.395 24.4851C116.094 24.6077 115.733 24.669 115.312 24.669ZM115.635 23.4759C116.046 23.4759 116.397 23.3946 116.689 23.2322C116.984 23.0698 117.207 22.8577 117.36 22.5959C117.516 22.3307 117.594 22.0473 117.594 21.7457V20.7614C117.541 20.8144 117.438 20.8641 117.285 20.9105C117.136 20.9536 116.966 20.9917 116.773 21.0249C116.581 21.0547 116.394 21.0829 116.212 21.1094C116.029 21.1326 115.877 21.1525 115.754 21.169C115.466 21.2055 115.202 21.2668 114.964 21.353C114.728 21.4392 114.539 21.5634 114.397 21.7259C114.258 21.8849 114.188 22.0971 114.188 22.3622C114.188 22.7301 114.324 23.0085 114.596 23.1974C114.868 23.383 115.214 23.4759 115.635 23.4759ZM124.905 16.8636V18.0568H120.734V16.8636H124.905ZM121.852 15.0341H123.339V22.2578C123.339 22.5462 123.382 22.7633 123.468 22.9091C123.554 23.0516 123.665 23.1494 123.801 23.2024C123.94 23.2521 124.091 23.277 124.253 23.277C124.373 23.277 124.477 23.2687 124.567 23.2521C124.656 23.2356 124.726 23.2223 124.775 23.2124L125.044 24.4403C124.958 24.4735 124.835 24.5066 124.676 24.5398C124.517 24.5762 124.318 24.5961 124.079 24.5994C123.688 24.6061 123.324 24.5365 122.986 24.3906C122.648 24.2448 122.374 24.0194 122.165 23.7145C121.957 23.4096 121.852 23.0268 121.852 22.5661V15.0341ZM130.463 16.8636V18.0568H126.148V16.8636H130.463ZM127.331 24.5V15.9787C127.331 15.5014 127.436 15.1053 127.644 14.7905C127.853 14.4723 128.13 14.2353 128.475 14.0795C128.819 13.9205 129.194 13.8409 129.598 13.8409C129.897 13.8409 130.152 13.8658 130.364 13.9155C130.576 13.9619 130.733 14.005 130.836 14.0447L130.488 15.2479C130.419 15.228 130.329 15.2048 130.22 15.1783C130.11 15.1484 129.978 15.1335 129.822 15.1335C129.461 15.1335 129.202 15.223 129.046 15.402C128.894 15.581 128.818 15.8395 128.818 16.1776V24.5H127.331ZM135.193 24.6541C134.477 24.6541 133.852 24.4901 133.319 24.1619C132.785 23.8338 132.371 23.3748 132.076 22.7848C131.781 22.1948 131.633 21.5054 131.633 20.7166C131.633 19.9245 131.781 19.2318 132.076 18.6385C132.371 18.0452 132.785 17.5845 133.319 17.2564C133.852 16.9283 134.477 16.7642 135.193 16.7642C135.909 16.7642 136.534 16.9283 137.067 17.2564C137.601 17.5845 138.015 18.0452 138.31 18.6385C138.605 19.2318 138.753 19.9245 138.753 20.7166C138.753 21.5054 138.605 22.1948 138.31 22.7848C138.015 23.3748 137.601 23.8338 137.067 24.1619C136.534 24.4901 135.909 24.6541 135.193 24.6541ZM135.198 23.4062C135.662 23.4062 136.046 23.2836 136.351 23.0384C136.656 22.7931 136.882 22.4666 137.027 22.0589C137.177 21.6513 137.251 21.2022 137.251 20.7116C137.251 20.2244 137.177 19.777 137.027 19.3693C136.882 18.9583 136.656 18.6286 136.351 18.38C136.046 18.1314 135.662 18.0071 135.198 18.0071C134.731 18.0071 134.343 18.1314 134.034 18.38C133.73 18.6286 133.503 18.9583 133.353 19.3693C133.208 19.777 133.135 20.2244 133.135 20.7116C133.135 21.2022 133.208 21.6513 133.353 22.0589C133.503 22.4666 133.73 22.7931 134.034 23.0384C134.343 23.2836 134.731 23.4062 135.198 23.4062ZM140.692 24.5V16.8636H142.129V18.0767H142.208C142.347 17.6657 142.593 17.3426 142.944 17.1072C143.299 16.8686 143.7 16.7493 144.147 16.7493C144.24 16.7493 144.349 16.7526 144.475 16.7592C144.604 16.7659 144.706 16.7741 144.778 16.7841V18.206C144.719 18.1894 144.613 18.1712 144.46 18.1513C144.308 18.1281 144.155 18.1165 144.003 18.1165C143.652 18.1165 143.338 18.1911 143.063 18.3402C142.791 18.486 142.576 18.6899 142.417 18.9517C142.258 19.2102 142.178 19.5052 142.178 19.8366V24.5H140.692ZM146.345 24.5V16.8636H147.772V18.1065H147.866C148.025 17.6856 148.285 17.3575 148.647 17.1222C149.008 16.8835 149.44 16.7642 149.944 16.7642C150.455 16.7642 150.882 16.8835 151.227 17.1222C151.575 17.3608 151.832 17.6889 151.998 18.1065H152.077C152.259 17.6989 152.549 17.3741 152.947 17.1321C153.345 16.8868 153.819 16.7642 154.369 16.7642C155.062 16.7642 155.627 16.9813 156.064 17.4155C156.505 17.8497 156.726 18.5043 156.726 19.3793V24.5H155.239V19.5185C155.239 19.0014 155.098 18.6269 154.816 18.3949C154.535 18.1629 154.198 18.0469 153.807 18.0469C153.323 18.0469 152.947 18.196 152.679 18.4943C152.41 18.7893 152.276 19.1688 152.276 19.6328V24.5H150.794V19.424C150.794 19.0097 150.665 18.6766 150.407 18.4247C150.148 18.1728 149.812 18.0469 149.397 18.0469C149.116 18.0469 148.855 18.1214 148.617 18.2706C148.382 18.4164 148.191 18.6203 148.045 18.8821C147.903 19.1439 147.831 19.4472 147.831 19.7919V24.5H146.345Z" fill="#101014"/>
</svg>
