<svg width="140" height="40" viewBox="0 0 140 40" fill="none"
    xmlns="http://www.w3.org/2000/svg">
    <mask id="path-1-inside-1_1_2895" fill="white">
        <path d="M0 8C0 3.58172 3.58172 0 8 0H132C136.418 0 140 3.58172 140 8V32C140 36.4183 136.418 40 132 40H8C3.58172 40 0 36.4183 0 32V8Z"/>
    </mask>
    <path d="M8 0V1H132V0V-1H8V0ZM140 8H139V32H140H141V8H140ZM132 40V39H8V40V41H132V40ZM0 32H1V8H0H-1V32H0ZM8 40V39C4.13401 39 1 35.866 1 32H0H-1C-1 36.9706 3.02944 41 8 41V40ZM140 32H139C139 35.866 135.866 39 132 39V40V41C136.971 41 141 36.9706 141 32H140ZM132 0V1C135.866 1 139 4.13401 139 8H140H141C141 3.02944 136.971 -1 132 -1V0ZM8 0V-1C3.02944 -1 -1 3.02944 -1 8H0H1C1 4.13401 4.13401 1 8 1V0Z" fill="white" fill-opacity="0.35" mask="url(#path-1-inside-1_1_2895)"/>
    <path d="M21.5131 24.5H18.2169V14.3182H21.6175C22.6151 14.3182 23.4719 14.522 24.1878 14.9297C24.9037 15.334 25.4523 15.9157 25.8334 16.6747C26.2179 17.4304 26.4101 18.3369 26.4101 19.3942C26.4101 20.4548 26.2162 21.3662 25.8284 22.1286C25.444 22.8909 24.8871 23.4775 24.158 23.8885C23.4288 24.2962 22.5472 24.5 21.5131 24.5ZM19.7531 23.1577H21.4286C22.2041 23.1577 22.8488 23.0118 23.3625 22.7202C23.8763 22.4252 24.2607 21.9993 24.5159 21.4425C24.7711 20.8823 24.8987 20.1996 24.8987 19.3942C24.8987 18.5954 24.7711 17.9176 24.5159 17.3608C24.264 16.804 23.8879 16.3814 23.3874 16.093C22.8869 15.8047 22.2655 15.6605 21.523 15.6605H19.7531V23.1577ZM31.6977 24.6541C30.9818 24.6541 30.3571 24.4901 29.8235 24.1619C29.2898 23.8338 28.8755 23.3748 28.5806 22.7848C28.2856 22.1948 28.1381 21.5054 28.1381 20.7166C28.1381 19.9245 28.2856 19.2318 28.5806 18.6385C28.8755 18.0452 29.2898 17.5845 29.8235 17.2564C30.3571 16.9283 30.9818 16.7642 31.6977 16.7642C32.4137 16.7642 33.0384 16.9283 33.572 17.2564C34.1057 17.5845 34.52 18.0452 34.8149 18.6385C35.1099 19.2318 35.2574 19.9245 35.2574 20.7166C35.2574 21.5054 35.1099 22.1948 34.8149 22.7848C34.52 23.3748 34.1057 23.8338 33.572 24.1619C33.0384 24.4901 32.4137 24.6541 31.6977 24.6541ZM31.7027 23.4062C32.1667 23.4062 32.5512 23.2836 32.8561 23.0384C33.161 22.7931 33.3864 22.4666 33.5323 22.0589C33.6814 21.6513 33.756 21.2022 33.756 20.7116C33.756 20.2244 33.6814 19.777 33.5323 19.3693C33.3864 18.9583 33.161 18.6286 32.8561 18.38C32.5512 18.1314 32.1667 18.0071 31.7027 18.0071C31.2354 18.0071 30.8476 18.1314 30.5394 18.38C30.2344 18.6286 30.0074 18.9583 29.8583 19.3693C29.7124 19.777 29.6395 20.2244 29.6395 20.7116C29.6395 21.2022 29.7124 21.6513 29.8583 22.0589C30.0074 22.4666 30.2344 22.7931 30.5394 23.0384C30.8476 23.2836 31.2354 23.4062 31.7027 23.4062ZM40.4133 24.6541C39.6742 24.6541 39.0378 24.4867 38.5042 24.152C37.9739 23.8139 37.5662 23.3482 37.2812 22.755C36.9962 22.1617 36.8536 21.4822 36.8536 20.7166C36.8536 19.9411 36.9995 19.2566 37.2911 18.6634C37.5828 18.0668 37.9938 17.6011 38.5241 17.2663C39.0544 16.9316 39.6792 16.7642 40.3984 16.7642C40.9784 16.7642 41.4954 16.8719 41.9495 17.0874C42.4036 17.2995 42.7698 17.5978 43.0482 17.9822C43.33 18.3667 43.4973 18.8158 43.5504 19.3295H42.1036C42.0241 18.9716 41.8418 18.6634 41.5568 18.4048C41.275 18.1463 40.8972 18.017 40.4232 18.017C40.0089 18.017 39.646 18.1264 39.3345 18.3452C39.0262 18.5606 38.7859 18.8688 38.6136 19.2699C38.4412 19.6676 38.3551 20.1383 38.3551 20.6818C38.3551 21.2386 38.4396 21.7192 38.6086 22.1236C38.7776 22.5279 39.0163 22.8411 39.3245 23.0632C39.6361 23.2853 40.0023 23.3963 40.4232 23.3963C40.705 23.3963 40.9602 23.3449 41.1889 23.2422C41.4209 23.1361 41.6148 22.9853 41.7705 22.7898C41.9296 22.5942 42.0407 22.3589 42.1036 22.0838H43.5504C43.4973 22.5777 43.3366 23.0185 43.0681 23.4062C42.7997 23.794 42.44 24.099 41.9893 24.321C41.5418 24.5431 41.0165 24.6541 40.4133 24.6541ZM50.2574 21.3331V16.8636H51.7489V24.5H50.2872V23.1776H50.2077C50.032 23.5852 49.7503 23.925 49.3625 24.1967C48.978 24.4652 48.4991 24.5994 47.9257 24.5994C47.4352 24.5994 47.001 24.4917 46.6232 24.2763C46.2486 24.0575 45.9536 23.7344 45.7382 23.3068C45.5261 22.8793 45.42 22.3506 45.42 21.7209V16.8636H46.9065V21.5419C46.9065 22.0623 47.0507 22.4766 47.3391 22.7848C47.6274 23.093 48.0019 23.2472 48.4626 23.2472C48.7411 23.2472 49.0178 23.1776 49.2929 23.0384C49.5713 22.8991 49.8017 22.6887 49.984 22.407C50.1696 22.1252 50.2607 21.7673 50.2574 21.3331ZM54.0262 24.5V16.8636H55.453V18.1065H55.5475C55.7066 17.6856 55.9668 17.3575 56.328 17.1222C56.6893 16.8835 57.1218 16.7642 57.6256 16.7642C58.1361 16.7642 58.5636 16.8835 58.9083 17.1222C59.2563 17.3608 59.5132 17.6889 59.6789 18.1065H59.7584C59.9407 17.6989 60.2307 17.3741 60.6285 17.1321C61.0262 16.8868 61.5002 16.7642 62.0504 16.7642C62.7431 16.7642 63.3082 16.9813 63.7457 17.4155C64.1865 17.8497 64.4069 18.5043 64.4069 19.3793V24.5H62.9204V19.5185C62.9204 19.0014 62.7795 18.6269 62.4978 18.3949C62.2161 18.1629 61.8797 18.0469 61.4886 18.0469C61.0047 18.0469 60.6285 18.196 60.36 18.4943C60.0915 18.7893 59.9573 19.1688 59.9573 19.6328V24.5H58.4758V19.424C58.4758 19.0097 58.3465 18.6766 58.088 18.4247C57.8295 18.1728 57.4931 18.0469 57.0788 18.0469C56.797 18.0469 56.5369 18.1214 56.2982 18.2706C56.0629 18.4164 55.8723 18.6203 55.7265 18.8821C55.584 19.1439 55.5127 19.4472 55.5127 19.7919V24.5H54.0262ZM69.9704 24.6541C69.2181 24.6541 68.5701 24.4934 68.0266 24.1719C67.4863 23.8471 67.0687 23.3913 66.7737 22.8047C66.482 22.2147 66.3362 21.5237 66.3362 20.7315C66.3362 19.9493 66.482 19.2599 66.7737 18.6634C67.0687 18.0668 67.4797 17.6011 68.0067 17.2663C68.537 16.9316 69.1568 16.7642 69.866 16.7642C70.2969 16.7642 70.7145 16.8355 71.1189 16.978C71.5232 17.1205 71.8862 17.3442 72.2077 17.6491C72.5292 17.9541 72.7827 18.3501 72.9683 18.8374C73.1539 19.3213 73.2467 19.9096 73.2467 20.6023V21.1293H67.1764V20.0156H71.79C71.79 19.6245 71.7105 19.2782 71.5514 18.9766C71.3923 18.6716 71.1686 18.4313 70.8802 18.2557C70.5952 18.08 70.2605 17.9922 69.876 17.9922C69.4584 17.9922 69.0938 18.0949 68.7822 18.3004C68.474 18.5026 68.2354 18.7678 68.0663 19.0959C67.9006 19.4207 67.8177 19.7737 67.8177 20.1548V21.0249C67.8177 21.5353 67.9072 21.9695 68.0862 22.3274C68.2685 22.6854 68.5221 22.9588 68.8469 23.1477C69.1717 23.3333 69.5512 23.4261 69.9854 23.4261C70.2671 23.4261 70.5239 23.3864 70.756 23.3068C70.988 23.224 71.1885 23.1013 71.3575 22.9389C71.5266 22.7765 71.6558 22.576 71.7453 22.3374L73.1523 22.5909C73.0396 23.0052 72.8374 23.3681 72.5457 23.6797C72.2574 23.9879 71.8945 24.2282 71.457 24.4006C71.0228 24.5696 70.5273 24.6541 69.9704 24.6541ZM76.6626 19.9659V24.5H75.176V16.8636H76.6029V18.1065H76.6974C76.873 17.7022 77.1481 17.3774 77.5226 17.1321C77.9005 16.8868 78.3761 16.7642 78.9495 16.7642C79.4698 16.7642 79.9256 16.8736 80.3167 17.0923C80.7078 17.3078 81.011 17.6293 81.2265 18.0568C81.4419 18.4844 81.5496 19.013 81.5496 19.6428V24.5H80.0631V19.8217C80.0631 19.2682 79.9189 18.8357 79.6306 18.5241C79.3422 18.2093 78.9462 18.0518 78.4424 18.0518C78.0977 18.0518 77.7911 18.1264 77.5226 18.2756C77.2575 18.4247 77.047 18.6435 76.8912 18.9318C76.7388 19.2169 76.6626 19.5616 76.6626 19.9659ZM87.3879 16.8636V18.0568H83.2167V16.8636H87.3879ZM84.3353 15.0341H85.8218V22.2578C85.8218 22.5462 85.8649 22.7633 85.9511 22.9091C86.0372 23.0516 86.1483 23.1494 86.2842 23.2024C86.4234 23.2521 86.5742 23.277 86.7366 23.277C86.8559 23.277 86.9603 23.2687 87.0498 23.2521C87.1393 23.2356 87.2089 23.2223 87.2586 23.2124L87.5271 24.4403C87.4409 24.4735 87.3183 24.5066 87.1592 24.5398C87.0001 24.5762 86.8012 24.5961 86.5626 24.5994C86.1715 24.6061 85.8069 24.5365 85.4688 24.3906C85.1308 24.2448 84.8573 24.0194 84.6485 23.7145C84.4397 23.4096 84.3353 23.0268 84.3353 22.5661V15.0341ZM91.5345 24.669C91.0506 24.669 90.6131 24.5795 90.222 24.4006C89.8309 24.2183 89.521 23.9548 89.2923 23.6101C89.067 23.2654 88.9543 22.8428 88.9543 22.3423C88.9543 21.9115 89.0371 21.5568 89.2028 21.2784C89.3686 21 89.5923 20.7796 89.874 20.6172C90.1557 20.4548 90.4706 20.3321 90.8186 20.2493C91.1666 20.1664 91.5213 20.1035 91.8825 20.0604C92.3399 20.0073 92.7111 19.9643 92.9962 19.9311C93.2812 19.8946 93.4884 19.8366 93.6176 19.7571C93.7469 19.6776 93.8115 19.5483 93.8115 19.3693V19.3345C93.8115 18.9003 93.6889 18.5639 93.4436 18.3253C93.2017 18.0866 92.8404 17.9673 92.3598 17.9673C91.8593 17.9673 91.4649 18.0784 91.1766 18.3004C90.8915 18.5192 90.6943 18.7628 90.5849 19.0312L89.1879 18.7131C89.3536 18.2491 89.5956 17.8745 89.9138 17.5895C90.2353 17.3011 90.6048 17.0923 91.0224 16.9631C91.4401 16.8305 91.8792 16.7642 92.3399 16.7642C92.6448 16.7642 92.968 16.8007 93.3094 16.8736C93.6541 16.9432 93.9756 17.0724 94.2739 17.2614C94.5755 17.4503 94.8224 17.7204 95.0146 18.0717C95.2069 18.4197 95.303 18.8722 95.303 19.429V24.5H93.8513V23.456H93.7916C93.6955 23.6482 93.5513 23.8371 93.3591 24.0227C93.1669 24.2083 92.9199 24.3625 92.6183 24.4851C92.3167 24.6077 91.9554 24.669 91.5345 24.669ZM91.8577 23.4759C92.2687 23.4759 92.62 23.3946 92.9116 23.2322C93.2066 23.0698 93.4304 22.8577 93.5828 22.5959C93.7386 22.3307 93.8165 22.0473 93.8165 21.7457V20.7614C93.7634 20.8144 93.6607 20.8641 93.5082 20.9105C93.3591 20.9536 93.1884 20.9917 92.9962 21.0249C92.8039 21.0547 92.6167 21.0829 92.4344 21.1094C92.2521 21.1326 92.0996 21.1525 91.977 21.169C91.6886 21.2055 91.4251 21.2668 91.1865 21.353C90.9512 21.4392 90.7623 21.5634 90.6197 21.7259C90.4805 21.8849 90.4109 22.0971 90.4109 22.3622C90.4109 22.7301 90.5468 23.0085 90.8186 23.1974C91.0904 23.383 91.4367 23.4759 91.8577 23.4759ZM101.128 16.8636V18.0568H96.9564V16.8636H101.128ZM98.075 15.0341H99.5615V22.2578C99.5615 22.5462 99.6046 22.7633 99.6908 22.9091C99.7769 23.0516 99.888 23.1494 100.024 23.2024C100.163 23.2521 100.314 23.277 100.476 23.277C100.596 23.277 100.7 23.2687 100.789 23.2521C100.879 23.2356 100.949 23.2223 100.998 23.2124L101.267 24.4403C101.181 24.4735 101.058 24.5066 100.899 24.5398C100.74 24.5762 100.541 24.5961 100.302 24.5994C99.9112 24.6061 99.5466 24.5365 99.2085 24.3906C98.8704 24.2448 98.597 24.0194 98.3882 23.7145C98.1794 23.4096 98.075 23.0268 98.075 22.5661V15.0341ZM103.052 24.5V16.8636H104.538V24.5H103.052ZM103.803 15.6854C103.544 15.6854 103.322 15.5992 103.136 15.4268C102.954 15.2512 102.863 15.0424 102.863 14.8004C102.863 14.5552 102.954 14.3464 103.136 14.174C103.322 13.9983 103.544 13.9105 103.803 13.9105C104.061 13.9105 104.282 13.9983 104.464 14.174C104.649 14.3464 104.742 14.5552 104.742 14.8004C104.742 15.0424 104.649 15.2512 104.464 15.4268C104.282 15.5992 104.061 15.6854 103.803 15.6854ZM110.035 24.6541C109.319 24.6541 108.694 24.4901 108.161 24.1619C107.627 23.8338 107.213 23.3748 106.918 22.7848C106.623 22.1948 106.475 21.5054 106.475 20.7166C106.475 19.9245 106.623 19.2318 106.918 18.6385C107.213 18.0452 107.627 17.5845 108.161 17.2564C108.694 16.9283 109.319 16.7642 110.035 16.7642C110.751 16.7642 111.376 16.9283 111.909 17.2564C112.443 17.5845 112.857 18.0452 113.152 18.6385C113.447 19.2318 113.595 19.9245 113.595 20.7166C113.595 21.5054 113.447 22.1948 113.152 22.7848C112.857 23.3748 112.443 23.8338 111.909 24.1619C111.376 24.4901 110.751 24.6541 110.035 24.6541ZM110.04 23.4062C110.504 23.4062 110.888 23.2836 111.193 23.0384C111.498 22.7931 111.724 22.4666 111.869 22.0589C112.019 21.6513 112.093 21.2022 112.093 20.7116C112.093 20.2244 112.019 19.777 111.869 19.3693C111.724 18.9583 111.498 18.6286 111.193 18.38C110.888 18.1314 110.504 18.0071 110.04 18.0071C109.572 18.0071 109.185 18.1314 108.876 18.38C108.572 18.6286 108.345 18.9583 108.195 19.3693C108.05 19.777 107.977 20.2244 107.977 20.7116C107.977 21.2022 108.05 21.6513 108.195 22.0589C108.345 22.4666 108.572 22.7931 108.876 23.0384C109.185 23.2836 109.572 23.4062 110.04 23.4062ZM117.02 19.9659V24.5H115.534V16.8636H116.961V18.1065H117.055C117.231 17.7022 117.506 17.3774 117.88 17.1321C118.258 16.8868 118.734 16.7642 119.307 16.7642C119.828 16.7642 120.283 16.8736 120.674 17.0923C121.066 17.3078 121.369 17.6293 121.584 18.0568C121.8 18.4844 121.907 19.013 121.907 19.6428V24.5H120.421V19.8217C120.421 19.2682 120.277 18.8357 119.988 18.5241C119.7 18.2093 119.304 18.0518 118.8 18.0518C118.455 18.0518 118.149 18.1264 117.88 18.2756C117.615 18.4247 117.405 18.6435 117.249 18.9318C117.097 19.2169 117.02 19.5616 117.02 19.9659Z" fill="white"/>
</svg>
