<svg width="4200" height="700" viewBox="0 0 4200 700" fill="none"
    xmlns="http://www.w3.org/2000/svg"
    xmlns:xlink="http://www.w3.org/1999/xlink">
    <g clip-path="url(#clip0_14_63)">
        <rect width="4200" height="700" fill="#101014"/>
        <g opacity="0.5" filter="url(#filter0_f_14_63)">
            <rect x="3351" y="-418" width="1040" height="1040" rx="520" fill="url(#paint0_linear_14_63)"/>
        </g>
        <g opacity="0.3" filter="url(#filter1_f_14_63)">
            <rect x="-373" y="180" width="1040" height="1040" rx="520" fill="url(#paint1_linear_14_63)"/>
        </g>
        <path d="M646.711 229.23C620.766 198.784 547.102 220.872 514.595 236.096C588.259 222.962 629.712 289.824 539.05 328.33C483.579 351.911 422.143 357.881 385.163 280.273L380.987 281.466C402.459 352.209 367.865 384.149 315.078 402.355L314.183 399.669C300.166 347.732 325.218 293.108 374.426 272.512C419.757 253.707 470.755 269.825 499.683 308.629C511.314 322.36 559.031 282.063 547.699 267.437C522.349 239.678 486.263 221.768 445.405 220.872C366.672 219.082 301.359 281.466 299.57 360.269C299.271 376.089 301.359 391.313 305.832 405.34V405.639C268.852 415.788 207.416 464.443 236.642 498.77C262.589 529.216 336.252 507.127 368.759 491.904C295.096 505.038 253.642 438.175 344.304 399.669C399.776 376.089 461.212 370.119 498.192 447.727L502.367 446.533C480.895 375.791 515.49 343.852 568.277 325.643L569.171 328.33C583.189 380.268 558.137 434.891 508.929 455.488C463.597 474.293 412.599 458.174 383.67 419.37C372.04 405.639 324.323 445.936 335.656 460.562C361.005 488.322 397.091 506.232 437.949 507.127C516.683 508.918 581.996 446.533 583.784 367.731C584.083 351.911 581.996 336.688 577.522 322.658V322.36C614.502 312.51 675.938 263.855 646.711 229.23Z" fill="white" />
        <path d="M791.726 294.651V259.468C791.726 224.937 811.109 216.793 843.686 216.793H898.089C939.136 216.793 944.837 231.615 944.837 254.582V258.328H909.328C909.328 246.6 902.65 245.134 891.085 245.134H851.83C833.587 245.134 828.863 249.532 828.863 269.73V284.39C828.863 304.587 833.587 308.985 851.83 308.985H890.434C899.881 308.985 909.328 307.519 909.328 296.117V292.697H864.372V268.264H945.489V301.818C945.489 335.698 927.897 337.327 887.176 337.327H843.686C811.109 337.327 791.726 329.183 791.726 294.651ZM1007.54 247.415V276.083H1067.32C1077.1 276.083 1080.68 272.173 1080.68 263.703V259.794C1080.68 249.369 1075.47 247.415 1064.07 247.415H1007.54ZM971.384 336.024V218.096H1080.52C1108.37 218.096 1115.86 231.941 1115.86 253.116V260.608C1115.86 276.408 1112.28 285.693 1095.66 289.602V289.928C1106.42 291.882 1115.37 296.606 1115.37 315.989V336.024H1079.21V321.853C1079.21 309.474 1075.63 305.402 1064.39 305.402H1007.54V336.024H971.384ZM1132.89 336.024L1196.74 218.096H1243.82L1308.65 336.024H1268.41L1257.18 315.175H1183.88L1173.29 336.024H1132.89ZM1220.2 245.46L1197.4 289.765H1243.66L1220.2 245.46ZM1325.65 336.024V218.096H1424.19C1458.56 218.096 1466.87 235.361 1466.87 258.491V268.59C1466.87 286.181 1459.21 306.379 1433.64 306.379H1361.81V336.024H1325.65ZM1361.81 247.415V277.06H1418C1426.47 277.06 1429.73 271.522 1429.73 264.518V259.957C1429.73 251.976 1425.82 247.415 1414.91 247.415H1361.81ZM1490.61 336.024V218.096H1526.77V260.12H1603V218.096H1639.16V336.024H1603V291.394H1526.77V336.024H1490.61ZM1669.62 336.024V218.096H1705.78V336.024H1669.62ZM1733.78 294.651V259.468C1733.78 224.937 1753.17 216.793 1785.74 216.793H1828.26C1879.73 216.793 1886.41 227.869 1886.08 261.26H1849.92V258.002C1849.92 249.532 1843.73 247.089 1832.98 247.089H1793.56C1774.5 247.089 1770.92 256.048 1770.92 270.707V283.412C1770.92 300.515 1774.5 307.031 1791.61 307.031H1830.21C1846.5 307.031 1851.39 305.402 1851.39 290.742H1887.55V301.818C1887.55 321.69 1880.38 337.327 1844.06 337.327H1785.74C1753.17 337.327 1733.78 329.183 1733.78 294.651ZM1901.88 336.024L1965.73 218.096H2012.8L2077.63 336.024H2037.4L2026.16 315.175H1952.86L1942.27 336.024H1901.88ZM1989.18 245.46L1966.38 289.765H2012.64L1989.18 245.46ZM2094.63 336.024V218.096H2130.79V305.728H2212.07V336.024H2094.63ZM2316.23 336.024V218.096H2414.78C2449.14 218.096 2457.45 235.361 2457.45 258.491V268.59C2457.45 286.181 2449.8 306.379 2424.22 306.379H2352.39V336.024H2316.23ZM2352.39 247.415V277.06H2408.59C2417.06 277.06 2420.31 271.522 2420.31 264.518V259.957C2420.31 251.976 2416.4 247.415 2405.49 247.415H2352.39ZM2481.19 336.024V218.096H2517.35V305.728H2598.63V336.024H2481.19ZM2606.6 336.024L2670.45 218.096H2717.52L2782.35 336.024H2742.12L2730.88 315.175H2657.58L2646.99 336.024H2606.6ZM2693.9 245.46L2671.1 289.765H2717.36L2693.9 245.46ZM2832.59 336.024V294.977L2767.27 218.096H2810.93L2850.67 266.309L2890.42 218.096H2934.07L2868.75 294.977V336.024H2832.59ZM2948.98 294.651V259.468C2948.98 224.937 2968.36 216.793 3000.94 216.793H3055.34C3096.39 216.793 3102.09 231.615 3102.09 254.582V258.328H3066.58C3066.58 246.6 3059.9 245.134 3048.34 245.134H3009.08C2990.84 245.134 2986.12 249.532 2986.12 269.73V284.39C2986.12 304.587 2990.84 308.985 3009.08 308.985H3047.69C3057.13 308.985 3066.58 307.519 3066.58 296.117V292.697H3021.63V268.264H3102.74V301.818C3102.74 335.698 3085.15 337.327 3044.43 337.327H3000.94C2968.36 337.327 2948.98 329.183 2948.98 294.651ZM3164.8 247.415V276.083H3224.58C3234.35 276.083 3237.93 272.173 3237.93 263.703V259.794C3237.93 249.369 3232.72 247.415 3221.32 247.415H3164.8ZM3128.64 336.024V218.096H3237.77C3265.62 218.096 3273.12 231.941 3273.12 253.116V260.608C3273.12 276.408 3269.53 285.693 3252.92 289.602V289.928C3263.67 291.882 3272.63 296.606 3272.63 315.989V336.024H3236.47V321.853C3236.47 309.474 3232.88 305.402 3221.64 305.402H3164.8V336.024H3128.64ZM3299.11 294.651V259.468C3299.11 224.937 3318.49 216.793 3351.07 216.793H3409.05C3441.63 216.793 3461.01 224.937 3461.01 259.468V294.651C3461.01 329.183 3441.63 337.327 3409.05 337.327H3351.07C3318.49 337.327 3299.11 329.183 3299.11 294.651ZM3336.24 270.707V283.412C3336.24 300.515 3339.83 307.031 3356.93 307.031H3403.19C3420.29 307.031 3423.88 300.515 3423.88 283.412V270.707C3423.88 256.048 3420.29 247.089 3401.24 247.089H3358.89C3339.83 247.089 3336.24 256.048 3336.24 270.707ZM3487.04 294V218.096H3523.2V286.181C3523.2 301.167 3528.57 307.031 3543.39 307.031H3579.23C3594.05 307.031 3599.43 301.167 3599.43 286.181V218.096H3635.59V294C3635.59 323.319 3620.44 337.327 3587.21 337.327H3535.41C3502.18 337.327 3487.04 323.319 3487.04 294ZM3664.09 336.024V218.096H3720.12L3788.04 303.773H3788.37V218.096H3824.53V336.024H3768.5L3700.57 250.347H3700.25V336.024H3664.09ZM3854.37 336.024V218.096H3963.51C3999.67 218.096 4012.37 229.986 4012.37 259.143V294.977C4012.37 324.133 3999.67 336.024 3963.51 336.024H3854.37ZM3890.53 247.415V305.728H3954.71C3970.18 305.728 3976.21 301.33 3976.21 284.553V268.59C3976.21 251.813 3970.18 247.415 3954.71 247.415H3890.53Z" fill="white"/>
        <rect x="782.115" y="377.024" width="585.462" height="137.529" rx="29.6154" fill="white" fill-opacity="0.05"/>
        <rect x="783.966" y="378.875" width="581.76" height="133.827" rx="27.7644" stroke="white" stroke-opacity="0.05" stroke-width="3.70192"/>
        <path d="M847.454 475.043V416.079H911.957V429.761H865.534V439.209H909.513V451.425H865.534V460.872H913.015V475.043H847.454ZM926.039 475.043V416.079H954.055L988.016 458.918H988.179V416.079H1006.26V475.043H978.243L944.282 432.205H944.119V475.043H926.039ZM1019.23 454.357V436.765C1019.23 419.5 1028.92 415.427 1045.21 415.427H1072.41C1092.93 415.427 1095.78 422.839 1095.78 434.322V436.195H1078.03C1078.03 430.331 1074.69 429.598 1068.91 429.598H1049.28C1040.16 429.598 1037.8 431.797 1037.8 441.896V449.226C1037.8 459.325 1040.16 461.524 1049.28 461.524H1068.58C1073.3 461.524 1078.03 460.791 1078.03 455.09V453.38H1055.55V441.163H1096.11V457.94C1096.11 474.88 1087.31 475.695 1066.95 475.695H1045.21C1028.92 475.695 1019.23 471.623 1019.23 454.357ZM1110.03 475.043V416.079H1128.11V475.043H1110.03ZM1143.42 475.043V416.079H1171.44L1205.4 458.918H1205.56V416.079H1223.64V475.043H1195.62L1161.66 432.205H1161.5V475.043H1143.42ZM1237.91 475.043V416.079H1302.41V429.761H1255.99V439.209H1299.97V451.425H1255.99V460.872H1303.47V475.043H1237.91Z" fill="white"/>
    </g>
    <defs>
        <filter id="filter0_f_14_63" x="2831" y="-938" width="2080" height="2080" filterUnits="userSpaceOnUse" color-interpolation-filters="sRGB">
            <feFlood flood-opacity="0" result="BackgroundImageFix"/>
            <feBlend mode="normal" in="SourceGraphic" in2="BackgroundImageFix" result="shape"/>
            <feGaussianBlur stdDeviation="260" result="effect1_foregroundBlur_14_63"/>
        </filter>
        <filter id="filter1_f_14_63" x="-893" y="-340" width="2080" height="2080" filterUnits="userSpaceOnUse" color-interpolation-filters="sRGB">
            <feFlood flood-opacity="0" result="BackgroundImageFix"/>
            <feBlend mode="normal" in="SourceGraphic" in2="BackgroundImageFix" result="shape"/>
            <feGaussianBlur stdDeviation="260" result="effect1_foregroundBlur_14_63"/>
        </filter>
        <linearGradient id="paint0_linear_14_63" x1="3351" y1="-418" x2="4391" y2="622" gradientUnits="userSpaceOnUse">
            <stop offset="0.15" stop-color="#6155F5"/>
            <stop offset="0.85" stop-color="#CB30E0"/>
        </linearGradient>
        <linearGradient id="paint1_linear_14_63" x1="-373" y1="180" x2="667" y2="1220" gradientUnits="userSpaceOnUse">
            <stop offset="0.15" stop-color="#E98FC9"/>
            <stop offset="0.85" stop-color="#00C3D0"/>
        </linearGradient>
        <clipPath id="clip0_14_63">
            <rect width="4200" height="700" fill="white"/>
        </clipPath>
    </defs>
</svg>
