<svg width="4200" height="700" viewBox="0 0 4200 700" fill="none"
    xmlns="http://www.w3.org/2000/svg"
    xmlns:xlink="http://www.w3.org/1999/xlink">
    <g clip-path="url(#clip0_23_40)">
        <rect width="4200" height="700" fill="#101014"/>
        <g opacity="0.5" filter="url(#filter0_f_23_40)">
            <rect x="3351" y="-418" width="1040" height="1040" rx="520" fill="url(#paint0_linear_23_40)"/>
        </g>
        <g opacity="0.3" filter="url(#filter1_f_23_40)">
            <rect x="-373" y="180" width="1040" height="1040" rx="520" fill="url(#paint1_linear_23_40)"/>
        </g>
        <path d="M646.711 229.23C620.766 198.784 547.102 220.872 514.595 236.096C588.259 222.962 629.712 289.824 539.05 328.33C483.579 351.911 422.143 357.881 385.163 280.273L380.987 281.466C402.459 352.209 367.865 384.149 315.078 402.355L314.183 399.669C300.166 347.732 325.218 293.108 374.426 272.512C419.757 253.707 470.755 269.825 499.683 308.629C511.314 322.36 559.031 282.063 547.699 267.437C522.349 239.678 486.263 221.768 445.405 220.872C366.672 219.082 301.359 281.466 299.57 360.269C299.271 376.089 301.359 391.313 305.832 405.34V405.639C268.852 415.788 207.416 464.443 236.642 498.77C262.589 529.216 336.252 507.127 368.759 491.904C295.096 505.038 253.642 438.175 344.304 399.669C399.776 376.089 461.212 370.119 498.192 447.727L502.367 446.533C480.895 375.791 515.49 343.852 568.277 325.643L569.171 328.33C583.189 380.268 558.137 434.891 508.929 455.488C463.597 474.293 412.599 458.174 383.67 419.37C372.04 405.639 324.323 445.936 335.656 460.562C361.005 488.322 397.091 506.232 437.949 507.127C516.683 508.918 581.996 446.533 583.784 367.731C584.083 351.911 581.996 336.688 577.522 322.658V322.36C614.502 312.51 675.938 263.855 646.711 229.23Z" fill="white" />
        <path d="M791.725 294.651V259.468C791.725 224.936 811.109 216.792 843.686 216.792H898.089C939.136 216.792 944.837 231.614 944.837 254.581V258.327H909.328C909.328 246.6 902.65 245.134 891.085 245.134H851.83C833.587 245.134 828.863 249.532 828.863 269.729V284.389C828.863 304.587 833.587 308.985 851.83 308.985H890.434C899.881 308.985 909.328 307.519 909.328 296.117V292.696H864.372V268.263H945.489V301.818C945.489 335.698 927.897 337.327 887.176 337.327H843.686C811.109 337.327 791.725 329.182 791.725 294.651ZM1007.54 247.414V276.082H1067.32C1077.1 276.082 1080.68 272.173 1080.68 263.703V259.793C1080.68 249.369 1075.47 247.414 1064.06 247.414H1007.54ZM971.384 336.023V218.095H1080.52C1108.37 218.095 1115.86 231.94 1115.86 253.115V260.608C1115.86 276.408 1112.28 285.692 1095.66 289.601V289.927C1106.41 291.882 1115.37 296.605 1115.37 315.989V336.023H1079.21V321.852C1079.21 309.473 1075.63 305.401 1064.39 305.401H1007.54V336.023H971.384ZM1132.89 336.023L1196.74 218.095H1243.82L1308.65 336.023H1268.41L1257.18 315.174H1183.88L1173.29 336.023H1132.89ZM1220.2 245.46L1197.4 289.764H1243.66L1220.2 245.46ZM1325.65 336.023V218.095H1424.19C1458.56 218.095 1466.87 235.361 1466.87 258.49V268.589C1466.87 286.181 1459.21 306.378 1433.64 306.378H1361.81V336.023H1325.65ZM1361.81 247.414V277.059H1418C1426.47 277.059 1429.73 271.521 1429.73 264.517V259.956C1429.73 251.975 1425.82 247.414 1414.91 247.414H1361.81ZM1490.61 336.023V218.095H1526.77V260.119H1603V218.095H1639.16V336.023H1603V291.393H1526.77V336.023H1490.61ZM1669.62 336.023V218.095H1705.78V336.023H1669.62ZM1733.78 294.651V259.468C1733.78 224.936 1753.17 216.792 1785.74 216.792H1828.26C1879.73 216.792 1886.41 227.868 1886.08 261.259H1849.92V258.002C1849.92 249.532 1843.73 247.088 1832.98 247.088H1793.56C1774.5 247.088 1770.92 256.047 1770.92 270.707V283.412C1770.92 300.515 1774.5 307.03 1791.61 307.03H1830.21C1846.5 307.03 1851.39 305.401 1851.39 290.742H1887.55V301.818C1887.55 321.69 1880.38 337.327 1844.06 337.327H1785.74C1753.17 337.327 1733.78 329.182 1733.78 294.651ZM1901.88 336.023L1965.73 218.095H2012.8L2077.63 336.023H2037.4L2026.16 315.174H1952.86L1942.27 336.023H1901.88ZM1989.18 245.46L1966.38 289.764H2012.64L1989.18 245.46ZM2094.63 336.023V218.095H2130.79V305.727H2212.07V336.023H2094.63ZM2316.23 336.023V218.095H2414.77C2449.14 218.095 2457.45 235.361 2457.45 258.49V268.589C2457.45 286.181 2449.8 306.378 2424.22 306.378H2352.39V336.023H2316.23ZM2352.39 247.414V277.059H2408.59C2417.06 277.059 2420.31 271.521 2420.31 264.517V259.956C2420.31 251.975 2416.4 247.414 2405.49 247.414H2352.39ZM2481.19 336.023V218.095H2517.35V305.727H2598.63V336.023H2481.19ZM2606.59 336.023L2670.45 218.095H2717.52L2782.35 336.023H2742.11L2730.88 315.174H2657.58L2646.99 336.023H2606.59ZM2693.9 245.46L2671.1 289.764H2717.36L2693.9 245.46ZM2832.59 336.023V294.977L2767.27 218.095H2810.93L2850.67 266.309L2890.42 218.095H2934.07L2868.75 294.977V336.023H2832.59ZM2948.98 294.651V259.468C2948.98 224.936 2968.36 216.792 3000.94 216.792H3055.34C3096.39 216.792 3102.09 231.614 3102.09 254.581V258.327H3066.58C3066.58 246.6 3059.9 245.134 3048.34 245.134H3009.08C2990.84 245.134 2986.12 249.532 2986.12 269.729V284.389C2986.12 304.587 2990.84 308.985 3009.08 308.985H3047.69C3057.13 308.985 3066.58 307.519 3066.58 296.117V292.696H3021.63V268.263H3102.74V301.818C3102.74 335.698 3085.15 337.327 3044.43 337.327H3000.94C2968.36 337.327 2948.98 329.182 2948.98 294.651ZM3164.8 247.414V276.082H3224.58C3234.35 276.082 3237.93 272.173 3237.93 263.703V259.793C3237.93 249.369 3232.72 247.414 3221.32 247.414H3164.8ZM3128.64 336.023V218.095H3237.77C3265.62 218.095 3273.12 231.94 3273.12 253.115V260.608C3273.12 276.408 3269.53 285.692 3252.92 289.601V289.927C3263.67 291.882 3272.63 296.605 3272.63 315.989V336.023H3236.47V321.852C3236.47 309.473 3232.88 305.401 3221.64 305.401H3164.8V336.023H3128.64ZM3299.11 294.651V259.468C3299.11 224.936 3318.49 216.792 3351.07 216.792H3409.05C3441.63 216.792 3461.01 224.936 3461.01 259.468V294.651C3461.01 329.182 3441.63 337.327 3409.05 337.327H3351.07C3318.49 337.327 3299.11 329.182 3299.11 294.651ZM3336.24 270.707V283.412C3336.24 300.515 3339.83 307.03 3356.93 307.03H3403.19C3420.29 307.03 3423.88 300.515 3423.88 283.412V270.707C3423.88 256.047 3420.29 247.088 3401.23 247.088H3358.88C3339.83 247.088 3336.24 256.047 3336.24 270.707ZM3487.04 293.999V218.095H3523.2V286.181C3523.2 301.166 3528.57 307.03 3543.39 307.03H3579.23C3594.05 307.03 3599.43 301.166 3599.43 286.181V218.095H3635.59V293.999C3635.59 323.318 3620.44 337.327 3587.21 337.327H3535.41C3502.18 337.327 3487.04 323.318 3487.04 293.999ZM3664.09 336.023V218.095H3720.12L3788.04 303.772H3788.37V218.095H3824.53V336.023H3768.5L3700.57 250.346H3700.25V336.023H3664.09ZM3854.37 336.023V218.095H3963.51C3999.67 218.095 4012.37 229.986 4012.37 259.142V294.977C4012.37 324.133 3999.67 336.023 3963.51 336.023H3854.37ZM3890.53 247.414V305.727H3954.71C3970.18 305.727 3976.21 301.329 3976.21 284.552V268.589C3976.21 251.812 3970.18 247.414 3954.71 247.414H3890.53Z" fill="white"/>
        <rect x="782.115" y="377.023" width="1528.46" height="137.529" rx="29.6154" fill="white" fill-opacity="0.05"/>
        <rect x="783.966" y="378.874" width="1524.76" height="133.827" rx="27.7644" stroke="white" stroke-opacity="0.05" stroke-width="3.70192"/>
        <path d="M846.395 459.813V455.741H864.475C864.557 462.012 867.081 462.501 872.294 462.501H894.446C898.274 462.501 902.183 462.094 902.183 457.533C902.183 452.402 900.066 452.076 876.773 452.076C849.571 452.076 846.477 448.819 846.477 434.322C846.477 423.653 847.454 415.427 870.258 415.427H895.505C916.354 415.427 918.309 422.513 918.309 432.856V434.729H900.228C900.228 430.413 899.74 428.621 891.433 428.621H871.398C867.326 428.621 864.557 430.005 864.557 433.182C864.557 438.312 866.756 438.475 886.139 438.394C914.237 438.312 920.752 440.023 920.752 457.207C920.752 473.088 915.377 475.695 891.351 475.695H869.443C852.992 475.695 846.395 472.6 846.395 459.813ZM933.992 475.043V416.079H998.494V429.761H952.072V439.208H996.051V451.425H952.072V460.872H999.553V475.043H933.992ZM1011.27 454.357V436.765C1011.27 419.499 1020.96 415.427 1037.25 415.427H1058.51C1084.25 415.427 1087.58 420.965 1087.42 437.661H1069.34V436.032C1069.34 431.797 1066.25 430.575 1060.87 430.575H1041.16C1031.63 430.575 1029.84 435.055 1029.84 442.385V448.737C1029.84 457.289 1031.63 460.546 1040.18 460.546H1059.49C1067.63 460.546 1070.07 459.732 1070.07 452.402H1088.15V457.94C1088.15 467.876 1084.57 475.695 1066.41 475.695H1037.25C1020.96 475.695 1011.27 471.622 1011.27 454.357ZM1101.1 454.031V416.079H1119.18V450.122C1119.18 457.614 1121.87 460.546 1129.28 460.546H1147.2C1154.61 460.546 1157.3 457.614 1157.3 450.122V416.079H1175.38V454.031C1175.38 468.69 1167.8 475.695 1151.19 475.695H1125.29C1108.68 475.695 1101.1 468.69 1101.1 454.031ZM1207.71 430.738V445.072H1237.6C1242.48 445.072 1244.28 443.118 1244.28 438.883V436.928C1244.28 431.716 1241.67 430.738 1235.97 430.738H1207.71ZM1189.63 475.043V416.079H1244.19C1258.12 416.079 1261.87 423.001 1261.87 433.589V437.335C1261.87 445.235 1260.08 449.877 1251.77 451.832V451.995C1257.14 452.972 1261.62 455.334 1261.62 465.026V475.043H1243.54V467.957C1243.54 461.768 1241.75 459.732 1236.13 459.732H1207.71V475.043H1189.63ZM1277.14 475.043V416.079H1295.22V475.043H1277.14ZM1306.21 430.738V416.079H1375.11V430.738H1349.7V475.043H1331.62V430.738H1306.21ZM1412.18 475.043V454.52L1379.52 416.079H1401.35L1421.22 440.186L1441.09 416.079H1462.92L1430.26 454.52V475.043H1412.18ZM1512.69 454.357V436.765C1512.69 419.499 1522.38 415.427 1538.67 415.427H1565.87C1586.39 415.427 1589.24 422.838 1589.24 434.322V436.195H1571.49C1571.49 430.331 1568.15 429.598 1562.37 429.598H1542.74C1533.62 429.598 1531.26 431.797 1531.26 441.896V449.226C1531.26 459.325 1533.62 461.524 1542.74 461.524H1562.04C1566.77 461.524 1571.49 460.791 1571.49 455.09V453.379H1549.01V441.163H1589.57V457.94C1589.57 474.88 1580.77 475.695 1560.41 475.695H1538.67C1522.38 475.695 1512.69 471.622 1512.69 454.357ZM1602.52 454.031V416.079H1620.6V450.122C1620.6 457.614 1623.29 460.546 1630.7 460.546H1648.61C1656.03 460.546 1658.71 457.614 1658.71 450.122V416.079H1676.79V454.031C1676.79 468.69 1669.22 475.695 1652.6 475.695H1626.71C1610.09 475.695 1602.52 468.69 1602.52 454.031ZM1692.02 475.043V416.079H1710.1V475.043H1692.02ZM1726.06 475.043V416.079H1780.63C1798.71 416.079 1805.06 422.024 1805.06 436.602V454.52C1805.06 469.098 1798.71 475.043 1780.63 475.043H1726.06ZM1744.14 430.738V459.895H1776.23C1783.96 459.895 1786.98 457.696 1786.98 449.307V441.326C1786.98 432.937 1783.96 430.738 1776.23 430.738H1744.14ZM1818.07 475.043V416.079H1882.57V429.761H1836.15V439.208H1880.13V451.425H1836.15V460.872H1883.63V475.043H1818.07ZM1896.65 475.043V416.079H1914.73V459.895H1955.37V475.043H1896.65ZM1966.11 475.043V416.079H1984.19V475.043H1966.11ZM1999.5 475.043V416.079H2027.52L2061.48 458.917H2061.64V416.079H2079.72V475.043H2051.7L2017.74 432.204H2017.58V475.043H1999.5ZM2093.99 475.043V416.079H2158.49V429.761H2112.07V439.208H2156.05V451.425H2112.07V460.872H2159.55V475.043H2093.99ZM2171.52 459.813V455.741H2189.6C2189.68 462.012 2192.2 462.501 2197.42 462.501H2219.57C2223.4 462.501 2227.3 462.094 2227.3 457.533C2227.3 452.402 2225.19 452.076 2201.89 452.076C2174.69 452.076 2171.6 448.819 2171.6 434.322C2171.6 423.653 2172.58 415.427 2195.38 415.427H2220.63C2241.48 415.427 2243.43 422.513 2243.43 432.856V434.729H2225.35C2225.35 430.413 2224.86 428.621 2216.55 428.621H2196.52C2192.45 428.621 2189.68 430.005 2189.68 433.182C2189.68 438.312 2191.88 438.475 2211.26 438.394C2239.36 438.312 2245.87 440.023 2245.87 457.207C2245.87 473.088 2240.5 475.695 2216.47 475.695H2194.57C2178.11 475.695 2171.52 472.6 2171.52 459.813Z" fill="white"/>
    </g>
    <defs>
        <filter id="filter0_f_23_40" x="2831" y="-938" width="2080" height="2080" filterUnits="userSpaceOnUse" color-interpolation-filters="sRGB">
            <feFlood flood-opacity="0" result="BackgroundImageFix"/>
            <feBlend mode="normal" in="SourceGraphic" in2="BackgroundImageFix" result="shape"/>
            <feGaussianBlur stdDeviation="260" result="effect1_foregroundBlur_23_40"/>
        </filter>
        <filter id="filter1_f_23_40" x="-893" y="-340" width="2080" height="2080" filterUnits="userSpaceOnUse" color-interpolation-filters="sRGB">
            <feFlood flood-opacity="0" result="BackgroundImageFix"/>
            <feBlend mode="normal" in="SourceGraphic" in2="BackgroundImageFix" result="shape"/>
            <feGaussianBlur stdDeviation="260" result="effect1_foregroundBlur_23_40"/>
        </filter>
        <linearGradient id="paint0_linear_23_40" x1="3351" y1="-418" x2="4391" y2="622" gradientUnits="userSpaceOnUse">
            <stop offset="0.15" stop-color="#6155F5"/>
            <stop offset="0.85" stop-color="#CB30E0"/>
        </linearGradient>
        <linearGradient id="paint1_linear_23_40" x1="-373" y1="180" x2="667" y2="1220" gradientUnits="userSpaceOnUse">
            <stop offset="0.15" stop-color="#E98FC9"/>
            <stop offset="0.85" stop-color="#00C3D0"/>
        </linearGradient>
        <clipPath id="clip0_23_40">
            <rect width="4200" height="700" fill="white"/>
        </clipPath>
    </defs>
</svg>
